<svg width="50" height="54" viewBox="0 0 50 54" fill="none" xmlns="http://www.w3.org/2000/svg">
<rect width="50" height="54" rx="5" fill="#1A1A1A"/>
<path fill-rule="evenodd" clip-rule="evenodd" d="M13.3081 9.5C11.0258 9.5 9.33695 11.6942 9.41258 14.0738C9.48516 16.36 9.39086 19.3209 8.71227 21.7355C8.03125 24.1568 6.88031 25.6913 5 25.8882V28.1118C6.88031 28.3092 8.03125 29.8428 8.71219 32.2645C9.39086 34.6791 9.48508 37.64 9.4125 39.9262C9.33687 42.3054 11.0257 44.5 13.3084 44.5H36.6949C38.9773 44.5 40.6658 42.3058 40.5902 39.9262C40.5176 37.64 40.6119 34.6791 41.2905 32.2645C41.9715 29.8428 43.1196 28.3086 45 28.1118V25.8882C43.1197 25.6908 41.9716 24.1572 41.2905 21.7355C40.6118 19.3212 40.5176 16.36 40.5902 14.0738C40.6658 11.6946 38.9773 9.5 36.6949 9.5H13.3078H13.3081ZM32.1187 31.0448C32.1187 34.3214 29.8936 36.3086 26.201 36.3086H19.9152C19.7354 36.3086 19.563 36.2301 19.4358 36.0904C19.3087 35.9508 19.2373 35.7614 19.2373 35.5639V18.4362C19.2373 18.2387 19.3087 18.0493 19.4358 17.9096C19.563 17.77 19.7354 17.6915 19.9152 17.6915H26.1652C29.2442 17.6915 31.2649 19.5235 31.2649 22.3361C31.2649 24.3102 29.9055 26.0775 28.1737 26.3871V26.4901C30.5312 26.7741 32.1187 28.5676 32.1187 31.0448V31.0448ZM25.5156 20.0522H21.9316V25.6128H24.9502C27.2838 25.6128 28.5705 24.5807 28.5705 22.7358C28.5703 21.0068 27.4641 20.0522 25.5156 20.0522ZM21.9316 27.8192V33.9472H25.6475C28.0772 33.9472 29.3641 32.8763 29.3641 30.8638C29.3641 28.8513 28.0411 27.8188 25.4912 27.8188H21.9316V27.8192Z" fill="#7952B3"/>
</svg>
