<svg width="51" height="51" viewBox="0 0 51 51" fill="none" xmlns="http://www.w3.org/2000/svg">
<path d="M23.6599 2.03598C24.898 1.32119 26.4233 1.32119 27.6614 2.03598L45.3105 12.2257C46.5486 12.9405 47.3113 14.2615 47.3113 15.6911V36.0706C47.3113 37.5002 46.5486 38.8212 45.3105 39.536L27.6614 49.7257C26.4233 50.4405 24.898 50.4405 23.6599 49.7257L6.01074 39.536C4.77268 38.8212 4.01001 37.5002 4.01001 36.0706V15.6911C4.01001 14.2615 4.77268 12.9405 6.01074 12.2257L23.6599 2.03598Z" stroke="url(#paint0_linear_663_97)" stroke-opacity="0.3" stroke-width="0.800293"/>
<path d="M24.2682 9.28443C25.1299 8.78694 26.1916 8.78694 27.0533 9.28443L39.3371 16.3765C40.1988 16.874 40.7296 17.7934 40.7296 18.7884V32.9725C40.7296 33.9675 40.1988 34.8869 39.3371 35.3844L27.0532 42.4765C26.1916 42.974 25.1299 42.974 24.2682 42.4765L11.9844 35.3844C11.1227 34.8869 10.5919 33.9675 10.5919 32.9725V18.7884C10.5919 17.7934 11.1227 16.874 11.9844 16.3765L24.2682 9.28443Z" fill="url(#paint1_linear_663_97)" fill-opacity="0.2"/>
<g clip-path="url(#clip0_663_97)">
<path fill-rule="evenodd" clip-rule="evenodd" d="M19.9317 17.7144C18.8128 17.7144 17.9856 18.6935 18.0231 19.7544C18.0582 20.7752 18.0125 22.0958 17.6801 23.173C17.3453 24.2526 16.7818 24.937 15.8606 25.0252V26.0174C16.7818 26.1048 17.3461 26.7892 17.6793 27.8696C18.0125 28.9468 18.0582 30.2673 18.0223 31.2874C17.9856 32.349 18.8128 33.3282 19.9317 33.3282H31.3911C32.51 33.3282 33.3373 32.349 33.2997 31.2874C33.2646 30.2673 33.3103 28.9468 33.6427 27.8696C33.9767 26.7892 34.5394 26.1056 35.4606 26.0174V25.0252C34.5394 24.937 33.9767 24.2526 33.6427 23.173C33.3103 22.095 33.2646 20.7744 33.2997 19.7544C33.3373 18.6927 32.5092 17.7144 31.3911 17.7144H19.9317ZM29.1478 27.3257C29.1478 28.7875 28.0575 29.6736 26.2486 29.6736H23.1689C23.0808 29.6736 22.9962 29.6386 22.9339 29.5763C22.8716 29.5139 22.8366 29.4294 22.8366 29.3412V21.7005C22.8368 21.6125 22.8719 21.5282 22.9342 21.466C22.9965 21.4038 23.0809 21.3689 23.1689 21.3689H26.2314C27.7398 21.3689 28.7304 22.1856 28.7304 23.4408C28.7304 24.3212 28.064 25.1093 27.2155 25.2481V25.2938C28.3711 25.4204 29.1486 26.2208 29.1486 27.3257H29.1478ZM25.9138 22.4216H24.1579V24.9027H25.6369C26.7802 24.9027 27.4107 24.4421 27.4107 23.6189C27.4107 22.8479 26.8684 22.4216 25.9138 22.4216ZM24.1579 25.8867V28.6201H25.9791C27.169 28.6201 27.8003 28.1424 27.8003 27.2449C27.8003 26.3465 27.1518 25.8867 25.9023 25.8867H24.1579Z" fill="#7952B3"/>
</g>
<defs>
<linearGradient id="paint0_linear_663_97" x1="0.660645" y1="0.880859" x2="50.6606" y2="50.8809" gradientUnits="userSpaceOnUse">
<stop stop-color="white"/>
<stop offset="0.765625" stop-color="white" stop-opacity="0"/>
</linearGradient>
<linearGradient id="paint1_linear_663_97" x1="8.26074" y1="8.48047" x2="43.0607" y2="43.2805" gradientUnits="userSpaceOnUse">
<stop stop-color="white"/>
<stop offset="0.828125" stop-color="white" stop-opacity="0"/>
</linearGradient>
<clipPath id="clip0_663_97">
<rect width="19.6" height="19.6" fill="white" transform="translate(15.8606 16.0811)"/>
</clipPath>
</defs>
</svg>
