<svg width="51" height="51" viewBox="0 0 51 51" fill="none" xmlns="http://www.w3.org/2000/svg">
<path d="M23.2195 2.03598C24.4575 1.32119 25.9829 1.32119 27.2209 2.03598L44.8701 12.2257C46.1082 12.9405 46.8708 14.2615 46.8708 15.6911V36.0706C46.8708 37.5002 46.1082 38.8212 44.8701 39.536L27.2209 49.7257C25.9829 50.4405 24.4575 50.4405 23.2195 49.7257L5.57031 39.536C4.33226 38.8212 3.56958 37.5002 3.56958 36.0706V15.6911C3.56958 14.2615 4.33225 12.9405 5.57031 12.2257L23.2195 2.03598Z" stroke="url(#paint0_linear_663_91)" stroke-opacity="0.3" stroke-width="0.800293"/>
<path d="M23.8278 9.28443C24.6895 8.78694 25.7511 8.78694 26.6128 9.28443L38.8966 16.3765C39.7583 16.874 40.2892 17.7934 40.2892 18.7884V32.9725C40.2892 33.9675 39.7583 34.8869 38.8966 35.3844L26.6128 42.4765C25.7511 42.974 24.6895 42.974 23.8278 42.4765L11.544 35.3844C10.6823 34.8869 10.1515 33.9675 10.1515 32.9725V18.7884C10.1515 17.7934 10.6823 16.874 11.544 16.3765L23.8278 9.28443Z" fill="url(#paint1_linear_663_91)" fill-opacity="0.2"/>
<g clip-path="url(#clip0_663_91)">
<path d="M16.9954 16.4805H33.4454L31.629 33.3716L25.2038 35.2805L18.8137 33.3706L16.9954 16.4805ZM30.1371 19.9369L20.3046 19.9348L20.4632 21.9879L28.0171 21.9901L27.8275 24.118H22.8731L23.0527 26.1333H27.6649L27.392 28.8934L25.2209 29.5233L23.0166 28.8881L22.8751 27.2352H20.9287L21.1454 30.2555L25.2209 31.5881L29.2291 30.3903L30.1371 19.9369Z" fill="#42A5F5"/>
</g>
<defs>
<linearGradient id="paint0_linear_663_91" x1="0.220215" y1="0.880859" x2="50.2202" y2="50.8809" gradientUnits="userSpaceOnUse">
<stop stop-color="white"/>
<stop offset="0.765625" stop-color="white" stop-opacity="0"/>
</linearGradient>
<linearGradient id="paint1_linear_663_91" x1="7.82031" y1="8.48047" x2="42.6203" y2="43.2805" gradientUnits="userSpaceOnUse">
<stop stop-color="white"/>
<stop offset="0.828125" stop-color="white" stop-opacity="0"/>
</linearGradient>
<clipPath id="clip0_663_91">
<rect width="18.8" height="18.8" fill="white" transform="translate(15.8203 16.4805)"/>
</clipPath>
</defs>
</svg>
