<svg width="50" height="50" viewBox="0 0 50 50" fill="none" xmlns="http://www.w3.org/2000/svg">
<path d="M22.9993 1.15512C24.2373 0.440331 25.7627 0.44033 27.0007 1.15512L44.6499 11.3449C45.888 12.0597 46.6506 13.3807 46.6506 14.8102V35.1898C46.6506 36.6193 45.888 37.9403 44.6499 38.6551L27.0007 48.8449C25.7627 49.5597 24.2373 49.5597 22.9993 48.8449L5.3501 38.6551C4.11204 37.9403 3.34937 36.6193 3.34937 35.1898V14.8102C3.34937 13.3807 4.11204 12.0597 5.3501 11.3449L22.9993 1.15512Z" stroke="url(#paint0_linear_666_80)" stroke-opacity="0.3" stroke-width="0.800293"/>
<path d="M24.0075 8.80396C24.8692 8.30647 25.9308 8.30647 26.7925 8.80397L39.0763 15.896C39.938 16.3935 40.4688 17.3129 40.4688 18.3079V32.4921C40.4688 33.4871 39.938 34.4065 39.0763 34.904L26.7925 41.996C25.9308 42.4935 24.8692 42.4935 24.0075 41.996L11.7237 34.904C10.862 34.4065 10.3312 33.4871 10.3312 32.4921V18.3079C10.3312 17.3129 10.862 16.3935 11.7237 15.896L24.0075 8.80396Z" fill="url(#paint1_linear_666_80)" fill-opacity="0.2"/>
<path d="M17.3393 30.3093C16.5824 30.3093 15.8943 29.6943 15.8943 28.9424C15.8943 28.1907 16.5136 27.5755 17.3393 27.5755C18.165 27.5755 18.7842 28.1907 18.7842 28.9424C18.7842 29.6943 18.0961 30.3093 17.3393 30.3093ZM35.091 22.8597C34.9533 21.7662 34.2653 20.8777 33.3709 20.1943L33.0268 19.9208L32.7516 20.2626C32.2011 20.8777 31.9947 21.9713 32.0636 22.7913C32.1323 23.4065 32.3388 24.0216 32.6827 24.5C32.4075 24.6367 32.0636 24.7734 31.7883 24.9101C31.169 25.1151 30.5498 25.1834 29.9306 25.1834H12.1101L12.0413 25.5935C11.9037 26.8921 12.1101 28.259 12.6605 29.4892L12.9357 29.9676V30.036C14.5871 32.7698 17.5457 34 20.7795 34C26.972 34 32.0636 31.3345 34.4717 25.5935C36.0542 25.6619 37.6368 25.2518 38.3936 23.7482L38.6 23.4065L38.2559 23.2014C37.3615 22.6547 36.123 22.5863 35.091 22.8597ZM26.2151 21.7662H23.5317V24.4317H26.2151V21.7662ZM26.2151 18.4172H23.5317V21.0828H26.2151V18.4172ZM26.2151 15H23.5317V17.6655H26.2151V15ZM29.5178 21.7662H26.8343V24.4317H29.5178V21.7662ZM19.541 21.7662H16.8577V24.4317H19.541V21.7662ZM22.9125 21.7662H20.229V24.4317H22.9125V21.7662ZM16.2384 21.7662H13.555V24.4317H16.2384V21.7662ZM22.9125 18.4172H20.229V21.0828H22.9125V18.4172ZM19.541 18.4172H16.8577V21.0828H19.541V18.4172Z" fill="#0087C9"/>
<defs>
<linearGradient id="paint0_linear_666_80" x1="0" y1="0" x2="50" y2="50" gradientUnits="userSpaceOnUse">
<stop stop-color="white"/>
<stop offset="0.765625" stop-color="white" stop-opacity="0"/>
</linearGradient>
<linearGradient id="paint1_linear_666_80" x1="8" y1="8" x2="42.8" y2="42.8" gradientUnits="userSpaceOnUse">
<stop stop-color="white"/>
<stop offset="0.828125" stop-color="white" stop-opacity="0"/>
</linearGradient>
</defs>
</svg>
