<svg width="50" height="54" viewBox="0 0 50 54" fill="none" xmlns="http://www.w3.org/2000/svg">
<rect width="50" height="54" rx="5" fill="#1A1A1A"/>
<path d="M14.5254 34.6439C13.5295 34.6439 12.6241 33.8346 12.6241 32.8453C12.6241 31.8561 13.439 31.0468 14.5254 31.0468C15.6118 31.0468 16.4265 31.8561 16.4265 32.8453C16.4265 33.8346 15.5212 34.6439 14.5254 34.6439ZM37.8828 24.8418C37.7017 23.4029 36.7964 22.2339 35.6196 21.3346L35.1668 20.9748L34.8047 21.4245C34.0804 22.2339 33.8088 23.6727 33.8994 24.7518C33.9899 25.5611 34.2615 26.3705 34.7141 27C34.352 27.1799 33.8994 27.3597 33.5373 27.5396C32.7224 27.8094 31.9077 27.8993 31.0928 27.8993H7.64486L7.55432 28.4389C7.37326 30.1475 7.64486 31.946 8.36912 33.5648L8.73124 34.1943V34.2842C10.9041 37.8812 14.797 39.5 19.052 39.5C27.2 39.5 33.8994 35.9928 37.068 28.4389C39.1503 28.5287 41.2326 27.9892 42.2284 26.0108L42.5 25.5611L42.0473 25.2914C40.8704 24.572 39.2408 24.482 37.8828 24.8418ZM26.2041 23.4029H22.6733V26.9101H26.2041V23.4029ZM26.2041 18.9964H22.6733V22.5036H26.2041V18.9964ZM26.2041 14.5H22.6733V18.0072H26.2041V14.5ZM30.5497 23.4029H27.0188V26.9101H30.5497V23.4029ZM17.4224 23.4029H13.8917V26.9101H17.4224V23.4029ZM21.8585 23.4029H18.3277V26.9101H21.8585V23.4029ZM13.0768 23.4029H9.54608V26.9101H13.0768V23.4029ZM21.8585 18.9964H18.3277V22.5036H21.8585V18.9964ZM17.4224 18.9964H13.8917V22.5036H17.4224V18.9964Z" fill="#0087C9"/>
</svg>
