<svg width="50" height="54" viewBox="0 0 50 54" fill="none" xmlns="http://www.w3.org/2000/svg">
<rect width="50" height="54" rx="5" fill="#1A1A1A"/>
<path d="M18.75 44.5002C22.2 44.5002 25 41.8868 25 38.6668V32.8335H18.75C15.3 32.8335 12.5 35.4468 12.5 38.6668C12.5 41.8868 15.3 44.5002 18.75 44.5002Z" fill="white"/>
<path d="M12.5 27.0003C12.5 23.7803 15.3 21.167 18.75 21.167H25V32.8335H18.75C15.3 32.8335 12.5 30.2203 12.5 27.0003Z" fill="white"/>
<path d="M12.5005 15.3333C12.5005 12.1133 15.3005 9.5 18.7505 9.5H25.0005L25 21.167H18.75C15.3 21.167 12.5005 18.5533 12.5005 15.3333Z" fill="white"/>
<path d="M25.0005 9.5H31.25C34.7 9.5 37.5 12.1133 37.5 15.3333C37.5 18.5533 34.7 21.1667 31.25 21.1667L25 21.167L25.0005 9.5Z" fill="white"/>
<path d="M37.5 27.0003C37.5 30.2203 34.7 32.8336 31.25 32.8336C27.8 32.8336 25 30.2203 25 27.0003C25 23.7803 27.8 21.1667 31.25 21.1667C34.7 21.1667 37.5 23.7803 37.5 27.0003Z" fill="white"/>
</svg>
