<svg width="50" height="54" viewBox="0 0 50 54" fill="none" xmlns="http://www.w3.org/2000/svg">
<rect width="50" height="54" rx="5" fill="#1A1A1A"/>
<g clip-path="url(#clip0_590_139)">
<path d="M18.75 44.5002C22.2 44.5002 25 41.8868 25 38.6668V32.8335H18.75C15.3 32.8335 12.5 35.4468 12.5 38.6668C12.5 41.8868 15.3 44.5002 18.75 44.5002Z" fill="#0ACF83"/>
<path d="M12.5 26.9998C12.5 23.7798 15.3 21.1665 18.75 21.1665H25V32.8332H18.75C15.3 32.8332 12.5 30.2198 12.5 26.9998Z" fill="#A259FF"/>
<path d="M12.5 15.3333C12.5 12.1133 15.3 9.5 18.75 9.5H25V21.1667H18.75C15.3 21.1667 12.5 18.5533 12.5 15.3333Z" fill="#F24E1E"/>
<path d="M25 9.5H31.25C34.7 9.5 37.5 12.1133 37.5 15.3333C37.5 18.5533 34.7 21.1667 31.25 21.1667H25V9.5Z" fill="#FF7262"/>
<path d="M37.5 26.9998C37.5 30.2198 34.7 32.8332 31.25 32.8332C27.8 32.8332 25 30.2198 25 26.9998C25 23.7798 27.8 21.1665 31.25 21.1665C34.7 21.1665 37.5 23.7798 37.5 26.9998Z" fill="#1ABCFE"/>
</g>
<defs>
<clipPath id="clip0_590_139">
<rect width="25" height="35" fill="white" transform="translate(12.5 9.5)"/>
</clipPath>
</defs>
</svg>
