<svg width="51" height="51" viewBox="0 0 51 51" fill="none" xmlns="http://www.w3.org/2000/svg">
<path d="M23.6599 1.25571C24.898 0.540917 26.4233 0.540916 27.6614 1.25571L45.3105 11.4455C46.5486 12.1603 47.3113 13.4812 47.3113 14.9108V35.2903C47.3113 36.7199 46.5486 38.0409 45.3105 38.7557L27.6614 48.9455C26.4233 49.6603 24.898 49.6603 23.6599 48.9455L6.01074 38.7557C4.77268 38.0409 4.01001 36.7199 4.01001 35.2903V14.9108C4.01001 13.4812 4.77268 12.1603 6.01074 11.4455L23.6599 1.25571Z" stroke="url(#paint0_linear_663_127)" stroke-opacity="0.3" stroke-width="0.800293"/>
<path d="M24.2682 8.50416C25.1299 8.00666 26.1916 8.00667 27.0533 8.50416L39.3371 15.5962C40.1988 16.0937 40.7296 17.0131 40.7296 18.0081V32.1923C40.7296 33.1873 40.1988 34.1067 39.3371 34.6042L27.0532 41.6962C26.1916 42.1937 25.1299 42.1937 24.2682 41.6962L11.9844 34.6042C11.1227 34.1067 10.5919 33.1873 10.5919 32.1923V18.0081C10.5919 17.0131 11.1227 16.0937 11.9844 15.5962L24.2682 8.50416Z" fill="url(#paint1_linear_663_127)" fill-opacity="0.2"/>
<g clip-path="url(#clip0_663_127)">
<path d="M28.794 28.2335C30.5245 28.2335 31.9273 26.8306 31.9273 25.1001C31.9273 23.3696 30.5245 21.9668 28.794 21.9668C27.0635 21.9668 25.6606 23.3696 25.6606 25.1001C25.6606 26.8306 27.0635 28.2335 28.794 28.2335Z" fill="#19BCFE"/>
<path fill-rule="evenodd" clip-rule="evenodd" d="M22.5274 34.5001C23.3584 34.5001 24.1554 34.1699 24.743 33.5823C25.3306 32.9947 25.6607 32.1977 25.6607 31.3667V28.2334H22.5274C21.6964 28.2334 20.8994 28.5635 20.3118 29.1511C19.7242 29.7387 19.394 30.5357 19.394 31.3667C19.394 32.1977 19.7242 32.9947 20.3118 33.5823C20.8994 34.1699 21.6964 34.5001 22.5274 34.5001V34.5001Z" fill="#09CF83"/>
<path fill-rule="evenodd" clip-rule="evenodd" d="M22.5274 28.2335H25.6607V21.9668H22.5274C21.6964 21.9668 20.8994 22.2969 20.3118 22.8845C19.7242 23.4721 19.394 24.2691 19.394 25.1001C19.394 25.9311 19.7242 26.7281 20.3118 27.3157C20.8994 27.9033 21.6964 28.2335 22.5274 28.2335V28.2335Z" fill="#A259FF"/>
<path fill-rule="evenodd" clip-rule="evenodd" d="M22.5274 21.9669H25.6607V15.7002H22.5274C21.6964 15.7002 20.8994 16.0303 20.3118 16.6179C19.7242 17.2055 19.394 18.0025 19.394 18.8335C19.394 19.6645 19.7242 20.4615 20.3118 21.0491C20.8994 21.6367 21.6964 21.9669 22.5274 21.9669V21.9669Z" fill="#F24E1E"/>
<path fill-rule="evenodd" clip-rule="evenodd" d="M28.794 21.9669H25.6606V15.7002H28.794C29.625 15.7002 30.422 16.0303 31.0096 16.6179C31.5972 17.2055 31.9273 18.0025 31.9273 18.8335C31.9273 19.6645 31.5972 20.4615 31.0096 21.0491C30.422 21.6367 29.625 21.9669 28.794 21.9669Z" fill="#FF7262"/>
</g>
<defs>
<linearGradient id="paint0_linear_663_127" x1="0.660645" y1="0.100586" x2="50.6606" y2="50.1006" gradientUnits="userSpaceOnUse">
<stop stop-color="white"/>
<stop offset="0.765625" stop-color="white" stop-opacity="0"/>
</linearGradient>
<linearGradient id="paint1_linear_663_127" x1="8.26074" y1="7.7002" x2="43.0607" y2="42.5002" gradientUnits="userSpaceOnUse">
<stop stop-color="white"/>
<stop offset="0.828125" stop-color="white" stop-opacity="0"/>
</linearGradient>
<clipPath id="clip0_663_127">
<rect width="18.8" height="18.8" fill="white" transform="translate(16.2607 15.7002)"/>
</clipPath>
</defs>
</svg>
