<svg width="50" height="54" viewBox="0 0 50 54" fill="none" xmlns="http://www.w3.org/2000/svg">
<rect width="50" height="54" rx="5" fill="#1A1A1A"/>
<path d="M8.29753 34.0625C8.1741 34.457 8.09209 34.7207 8.04758 34.9312C8.00523 35.1315 8.00708 35.2396 8.0259 35.3267C8.04472 35.4139 8.08618 35.5064 8.20169 35.645C8.32309 35.7906 8.49736 35.954 8.7586 36.1979L19.4021 46.1341C19.7829 46.4896 20.0432 46.7314 20.2528 46.8726C20.4554 47.009 20.5607 47.0162 20.6437 46.9838C20.7266 46.9516 20.8129 46.8698 20.9301 46.6088C21.0513 46.3388 21.1754 45.9473 21.3564 45.373L24.034 36.875C24.1585 36.4802 24.2411 36.2161 24.2861 36.0052C24.3289 35.8046 24.3272 35.6964 24.3084 35.609C24.2896 35.5217 24.2482 35.4289 24.1324 35.29C24.0107 35.1441 23.836 34.9802 23.5742 34.7357L12.9169 24.7866C12.5353 24.4302 12.2743 24.1878 12.0643 24.0464C11.8612 23.9096 11.7557 23.9026 11.6727 23.9351C11.5897 23.9676 11.5034 24.0496 11.3864 24.3115C11.2654 24.5825 11.1417 24.9754 10.9614 25.5515L8.29753 34.0625Z" fill="url(#paint0_linear_590_120)" stroke="url(#paint1_linear_590_120)" stroke-width="0.755795"/>
<path d="M34.5942 34.6257C34.4912 34.9502 34.4226 35.1653 34.3566 35.3236C34.294 35.4736 34.2465 35.5404 34.1983 35.5833C34.15 35.6262 34.0857 35.6587 33.9586 35.6773C33.8246 35.6967 33.6507 35.6973 33.3885 35.6973H9.68264C9.12832 35.6973 8.74527 35.6963 8.46928 35.6412C8.19883 35.5874 8.10275 35.4945 8.05092 35.3893C7.99909 35.2841 7.97284 35.1288 8.04116 34.7725C8.11087 34.4089 8.25914 33.9334 8.47473 33.2461L11.29 24.2693C11.3925 23.9428 11.4607 23.7264 11.5266 23.5671C11.5889 23.4161 11.6365 23.3488 11.6848 23.3056C11.7332 23.2625 11.7977 23.2297 11.9253 23.2111C12.0599 23.1915 12.2346 23.1909 12.498 23.1909H36.2371C36.7937 23.1909 37.1784 23.1919 37.4554 23.2471C37.7271 23.3012 37.8233 23.3946 37.875 23.5001C37.9267 23.6056 37.9528 23.7614 37.883 24.1188C37.8119 24.4834 37.6615 24.96 37.4429 25.649L34.5942 34.6257Z" fill="url(#paint2_linear_590_120)" stroke="url(#paint3_linear_590_120)" stroke-width="0.755795"/>
<path d="M39.6687 18.4347C39.5657 18.7594 39.497 18.9744 39.4311 19.1326C39.3685 19.2827 39.321 19.3495 39.2728 19.3924C39.2245 19.4353 39.1602 19.4678 39.0331 19.4863C38.8991 19.5058 38.7252 19.5063 38.4629 19.5063H14.7571C14.2028 19.5063 13.8197 19.5053 13.5438 19.4504C13.2733 19.3965 13.1772 19.3036 13.1254 19.1984C13.0736 19.0932 13.0473 18.9379 13.1157 18.5816C13.1853 18.2179 13.3336 17.7426 13.5492 17.0552L16.3645 8.0785C16.4669 7.75184 16.5352 7.53549 16.601 7.37619C16.6634 7.22519 16.7109 7.1579 16.7593 7.1148C16.8076 7.07163 16.8722 7.03876 16.9998 7.02015C17.1344 7.00054 17.3091 7 17.5724 7H41.3116C41.8682 7 42.2529 7.00101 42.5299 7.0562C42.8015 7.11031 42.8977 7.20372 42.9495 7.30922C43.0012 7.41472 43.0272 7.57045 42.9575 7.92788C42.8864 8.29253 42.736 8.76918 42.5174 9.45808L39.6687 18.4347Z" fill="url(#paint4_linear_590_120)" stroke="url(#paint5_linear_590_120)" stroke-width="0.755795"/>
<defs>
<linearGradient id="paint0_linear_590_120" x1="18.8744" y1="43.961" x2="22.4876" y2="29.1374" gradientUnits="userSpaceOnUse">
<stop stop-color="#FDFDFD"/>
<stop offset="1" stop-color="#FDFDFD" stop-opacity="0"/>
</linearGradient>
<linearGradient id="paint1_linear_590_120" x1="18.8744" y1="43.961" x2="22.4876" y2="29.1374" gradientUnits="userSpaceOnUse">
<stop stop-color="#FDFDFD"/>
<stop offset="1" stop-color="#FDFDFD" stop-opacity="0"/>
</linearGradient>
<linearGradient id="paint2_linear_590_120" x1="7.27186" y1="36.0849" x2="16.8051" y2="13.5558" gradientUnits="userSpaceOnUse">
<stop stop-color="#2DC7ED"/>
<stop offset="1" stop-color="#538BF0" stop-opacity="0"/>
</linearGradient>
<linearGradient id="paint3_linear_590_120" x1="7.27186" y1="36.0849" x2="16.8051" y2="13.5558" gradientUnits="userSpaceOnUse">
<stop stop-color="#2DC7ED"/>
<stop offset="1" stop-color="#538BF0" stop-opacity="0"/>
</linearGradient>
<linearGradient id="paint4_linear_590_120" x1="12.3463" y1="19.8939" x2="21.8796" y2="-2.6351" gradientUnits="userSpaceOnUse">
<stop stop-color="#2DC7ED"/>
<stop offset="1" stop-color="#538BF0" stop-opacity="0"/>
</linearGradient>
<linearGradient id="paint5_linear_590_120" x1="12.3463" y1="19.8939" x2="21.8796" y2="-2.6351" gradientUnits="userSpaceOnUse">
<stop stop-color="#2DC7ED"/>
<stop offset="1" stop-color="#538BF0" stop-opacity="0"/>
</linearGradient>
</defs>
</svg>
