<svg width="50" height="54" viewBox="0 0 50 54" fill="none" xmlns="http://www.w3.org/2000/svg">
<rect width="50" height="54" rx="5" fill="#1A1A1A"/>
<path d="M41.84 25.4408L26.5586 10.1601C25.6791 9.27998 24.2518 9.27998 23.3712 10.1601L20.1979 13.3334L24.2233 17.3588C25.1588 17.0427 26.2315 17.2548 26.9771 18.0005C27.7263 18.7509 27.9369 19.8328 27.6131 20.7713L31.4925 24.6509C32.4311 24.3275 33.5141 24.5367 34.2637 25.2876C35.3114 26.3349 35.3114 28.0323 34.2637 29.0802C33.2158 30.1283 31.5184 30.1283 30.4699 29.0802C29.6818 28.2913 29.4872 27.134 29.8861 26.1631L26.2682 22.5452L26.2678 32.0661C26.5301 32.1958 26.7696 32.3671 26.9771 32.5733C28.0248 33.6206 28.0248 35.3181 26.9771 36.3669C25.9292 37.4145 24.231 37.4145 23.1845 36.3669C22.1369 35.3181 22.1369 33.6207 23.1845 32.5735C23.4356 32.3223 23.734 32.1233 24.0624 31.9882V22.3786C23.7335 22.2443 23.435 22.0452 23.1845 21.7933C22.3908 21.0005 22.1999 19.8358 22.6066 18.8611L18.6385 14.8925L8.16035 25.3702C7.27988 26.2511 7.27988 27.6786 8.16035 28.5588L23.442 43.8398C24.3218 44.7201 25.7488 44.7201 26.6297 43.8398L41.8399 28.6297C42.7201 27.7492 42.7201 26.3209 41.8399 25.4408" fill="#F05133"/>
</svg>
