<svg width="51" height="51" viewBox="0 0 51 51" fill="none" xmlns="http://www.w3.org/2000/svg">
<path d="M23.1003 2.03598C24.3384 1.32119 25.8637 1.32119 27.1018 2.03598L44.751 12.2257C45.989 12.9405 46.7517 14.2615 46.7517 15.6911V36.0706C46.7517 37.5002 45.989 38.8212 44.751 39.536L27.1018 49.7257C25.8637 50.4405 24.3384 50.4405 23.1003 49.7257L5.45117 39.536C4.21311 38.8212 3.45044 37.5002 3.45044 36.0706V15.6911C3.45044 14.2615 4.21311 12.9405 5.45117 12.2257L23.1003 2.03598Z" stroke="url(#paint0_linear_663_103)" stroke-opacity="0.3" stroke-width="0.800293"/>
<path d="M23.7087 9.28443C24.5704 8.78694 25.632 8.78694 26.4937 9.28443L38.7775 16.3765C39.6392 16.874 40.17 17.7934 40.17 18.7884V32.9725C40.17 33.9675 39.6392 34.8869 38.7775 35.3844L26.4937 42.4765C25.632 42.974 24.5704 42.974 23.7087 42.4765L11.4248 35.3844C10.5631 34.8869 10.0323 33.9675 10.0323 32.9725V18.7884C10.0323 17.7934 10.5632 16.874 11.4248 16.3765L23.7087 9.28443Z" fill="url(#paint1_linear_663_103)" fill-opacity="0.2"/>
<g clip-path="url(#clip0_663_103)">
<path d="M34.1464 25.043L25.9379 16.8356C25.8255 16.7232 25.6921 16.634 25.5452 16.5731C25.3983 16.5123 25.2409 16.481 25.0819 16.481C24.9229 16.481 24.7655 16.5123 24.6186 16.5731C24.4718 16.634 24.3383 16.7232 24.2259 16.8356L22.5222 18.5394L24.6842 20.7014C24.9392 20.6143 25.2135 20.6007 25.4758 20.6621C25.7382 20.7235 25.978 20.8574 26.1679 21.0485C26.3578 21.2396 26.4901 21.4803 26.5498 21.743C26.6095 22.0058 26.5941 22.28 26.5054 22.5344L28.5887 24.6188C28.8969 24.5103 29.2329 24.51 29.5413 24.6179C29.8498 24.7258 30.1122 24.9356 30.2856 25.2126C30.4589 25.4896 30.5327 25.8174 30.4949 26.1419C30.457 26.4665 30.3098 26.7685 30.0774 26.9982C29.8422 27.2349 29.532 27.3826 29.2 27.416C28.868 27.4495 28.5346 27.3666 28.2569 27.1815C27.9792 26.9965 27.7743 26.7207 27.6773 26.4014C27.5803 26.0821 27.5972 25.739 27.7251 25.4308L25.7828 23.4873V28.6021C26.078 28.7482 26.3142 28.9911 26.4521 29.2903C26.5899 29.5895 26.6211 29.9269 26.5403 30.2463C26.4596 30.5656 26.2718 30.8477 26.0083 31.0454C25.7448 31.2431 25.4215 31.3445 25.0923 31.3328C24.7631 31.321 24.4479 31.1968 24.1992 30.9808C23.9504 30.7648 23.7833 30.4701 23.7255 30.1457C23.6677 29.8214 23.7229 29.4871 23.8817 29.1985C24.0405 28.9099 24.2935 28.6845 24.5984 28.5598V23.398C24.4225 23.3259 24.2626 23.2198 24.1279 23.0856C23.9932 22.9514 23.8864 22.7919 23.8137 22.6163C23.7409 22.4406 23.7037 22.2523 23.7041 22.0622C23.7044 21.8721 23.7424 21.684 23.8158 21.5086L21.6856 19.3772L16.0573 25.0054C15.9449 25.1178 15.8557 25.2513 15.7948 25.3981C15.734 25.545 15.7026 25.7024 15.7026 25.8614C15.7026 26.0204 15.734 26.1778 15.7948 26.3247C15.8557 26.4716 15.9449 26.605 16.0573 26.7174L24.2659 34.9259C24.3783 35.0384 24.5117 35.1276 24.6586 35.1884C24.8055 35.2493 24.9629 35.2806 25.1219 35.2806C25.2808 35.2806 25.4383 35.2493 25.5851 35.1884C25.732 35.1276 25.8655 35.0384 25.9778 34.9259L34.1476 26.7562C34.3744 26.529 34.5018 26.2212 34.5018 25.9002C34.5018 25.5792 34.3744 25.2713 34.1476 25.0442" fill="#F05133"/>
</g>
<defs>
<linearGradient id="paint0_linear_663_103" x1="0.101074" y1="0.880859" x2="50.1011" y2="50.8809" gradientUnits="userSpaceOnUse">
<stop stop-color="white"/>
<stop offset="0.765625" stop-color="white" stop-opacity="0"/>
</linearGradient>
<linearGradient id="paint1_linear_663_103" x1="7.70117" y1="8.48047" x2="42.5012" y2="43.2805" gradientUnits="userSpaceOnUse">
<stop stop-color="white"/>
<stop offset="0.828125" stop-color="white" stop-opacity="0"/>
</linearGradient>
<clipPath id="clip0_663_103">
<rect width="18.8" height="18.8" fill="white" transform="translate(15.7007 16.4805)"/>
</clipPath>
</defs>
</svg>
