<svg width="51" height="51" viewBox="0 0 51 51" fill="none" xmlns="http://www.w3.org/2000/svg">
<path d="M23.3206 2.03598C24.5586 1.32119 26.084 1.32119 27.322 2.03598L44.9712 12.2257C46.2092 12.9405 46.9719 14.2615 46.9719 15.6911V36.0706C46.9719 37.5002 46.2092 38.8212 44.9712 39.536L27.322 49.7257C26.084 50.4405 24.5586 50.4405 23.3206 49.7257L5.67139 39.536C4.43333 38.8212 3.67065 37.5002 3.67065 36.0706V15.6911C3.67065 14.2615 4.43333 12.9405 5.67139 12.2257L23.3206 2.03598Z" stroke="url(#paint0_linear_663_106)" stroke-opacity="0.3" stroke-width="0.800293"/>
<path d="M23.9284 9.28443C24.7901 8.78694 25.8517 8.78694 26.7134 9.28443L38.9972 16.3765C39.8589 16.874 40.3897 17.7934 40.3897 18.7884V32.9725C40.3897 33.9675 39.8589 34.8869 38.9972 35.3844L26.7134 42.4765C25.8517 42.974 24.7901 42.974 23.9284 42.4765L11.6446 35.3844C10.7829 34.8869 10.2521 33.9675 10.2521 32.9725V18.7884C10.2521 17.7934 10.7829 16.874 11.6446 16.3765L23.9284 9.28443Z" fill="url(#paint1_linear_663_106)" fill-opacity="0.2"/>
<g clip-path="url(#clip0_663_106)">
<path fill-rule="evenodd" clip-rule="evenodd" d="M25.3209 16.481C20.1274 16.481 15.9209 20.6875 15.9209 25.881C15.9209 30.0405 18.6116 33.5537 22.3481 34.7992C22.8181 34.8815 22.9944 34.5995 22.9944 34.3527C22.9944 34.1295 22.9826 33.3892 22.9826 32.602C20.6209 33.0367 20.0099 32.0262 19.8219 31.4975C19.7161 31.2272 19.2579 30.393 18.8584 30.1697C18.5294 29.9935 18.0594 29.5587 18.8466 29.547C19.5869 29.5352 20.1156 30.2285 20.2919 30.5105C21.1379 31.9322 22.4891 31.5327 23.0296 31.286C23.1119 30.675 23.3586 30.2637 23.6289 30.0287C21.5374 29.7937 19.3519 28.983 19.3519 25.3875C19.3519 24.3652 19.7161 23.5192 20.3154 22.8612C20.2214 22.6262 19.8924 21.6627 20.4094 20.3702C20.4094 20.3702 21.1966 20.1235 22.9944 21.3337C23.7464 21.1222 24.5454 21.0165 25.3444 21.0165C26.1434 21.0165 26.9424 21.1222 27.6944 21.3337C29.4921 20.1117 30.2794 20.3702 30.2794 20.3702C30.7964 21.6627 30.4674 22.6262 30.3734 22.8612C30.9726 23.5192 31.3369 24.3535 31.3369 25.3875C31.3369 28.9947 29.1396 29.7937 27.0481 30.0287C27.3889 30.3225 27.6826 30.8865 27.6826 31.7677C27.6826 33.025 27.6709 34.0355 27.6709 34.3527C27.6709 34.5995 27.8471 34.8932 28.3171 34.7992C30.1832 34.1692 31.8047 32.9699 32.9534 31.3701C34.1022 29.7702 34.7203 27.8505 34.7209 25.881C34.7209 20.6875 30.5144 16.481 25.3209 16.481Z" fill="white"/>
</g>
<defs>
<linearGradient id="paint0_linear_663_106" x1="0.321289" y1="0.880859" x2="50.3213" y2="50.8809" gradientUnits="userSpaceOnUse">
<stop stop-color="white"/>
<stop offset="0.765625" stop-color="white" stop-opacity="0"/>
</linearGradient>
<linearGradient id="paint1_linear_663_106" x1="7.9209" y1="8.48047" x2="42.7209" y2="43.2805" gradientUnits="userSpaceOnUse">
<stop stop-color="white"/>
<stop offset="0.828125" stop-color="white" stop-opacity="0"/>
</linearGradient>
<clipPath id="clip0_663_106">
<rect width="18.8" height="18.8" fill="white" transform="translate(15.9209 16.4805)"/>
</clipPath>
</defs>
</svg>
