<svg width="50" height="54" viewBox="0 0 50 54" fill="none" xmlns="http://www.w3.org/2000/svg">
<rect width="50" height="54" rx="5" fill="#1A1A1A"/>
<path d="M25.0001 7C13.9558 7 5 16.1808 5 27.5063C5 36.5667 10.7306 44.2532 18.6773 46.9648C19.6768 47.1546 20.0439 46.5199 20.0439 45.9783C20.0439 45.4893 20.0252 43.8738 20.0167 42.1604C14.4525 43.4008 13.2785 39.7409 13.2785 39.7409C12.3687 37.3706 11.0578 36.7405 11.0578 36.7405C9.2433 35.4677 11.1946 35.4938 11.1946 35.4938C13.203 35.6385 14.2605 37.607 14.2605 37.607C16.0443 40.742 18.9393 39.8356 20.0806 39.3118C20.26 37.9863 20.7784 37.0818 21.3503 36.5697C16.9081 36.051 12.2382 34.2927 12.2382 26.4353C12.2382 24.1966 13.0195 22.3672 14.299 20.9312C14.0913 20.4146 13.4068 18.329 14.4927 15.5044C14.4927 15.5044 16.1722 14.9532 19.9941 17.6064C21.5894 17.1519 23.3004 16.9242 25.0001 16.9165C26.6998 16.9242 28.412 17.1519 30.0104 17.6064C33.8278 14.9532 35.505 15.5044 35.505 15.5044C36.5936 18.329 35.9087 20.4146 35.701 20.9312C36.9833 22.3672 37.7593 24.1965 37.7593 26.4353C37.7593 34.3114 33.0806 36.0457 28.6271 36.5533C29.3444 37.1897 29.9836 38.4377 29.9836 40.3508C29.9836 43.0945 29.9604 45.3028 29.9604 45.9783C29.9604 46.524 30.3204 47.1634 31.3343 46.962C39.2766 44.2474 45 36.5636 45 27.5063C45 16.1808 36.0455 7 25.0001 7Z" fill="#F7F7F7"/>
<path d="M12.4906 36.2116C12.4467 36.3134 12.2901 36.344 12.1478 36.2742C12.0027 36.2073 11.9212 36.0683 11.9682 35.966C12.0114 35.8612 12.1679 35.8319 12.3127 35.9024C12.4581 35.9691 12.5409 36.1093 12.4906 36.2116ZM13.4744 37.1116C13.379 37.2023 13.1925 37.1601 13.0659 37.0168C12.9351 36.8739 12.9106 36.6828 13.0074 36.5907C13.1058 36.5001 13.2866 36.5424 13.4178 36.6855C13.5486 36.8301 13.5741 37.0199 13.4744 37.1116ZM14.1493 38.263C14.0267 38.3504 13.8262 38.2685 13.7025 38.0861C13.5799 37.9039 13.5799 37.6852 13.7051 37.5976C13.8294 37.5099 14.0267 37.5887 14.1522 37.7696C14.2745 37.9551 14.2747 38.1736 14.1493 38.263ZM15.2906 39.5967C15.181 39.7206 14.9476 39.6874 14.7766 39.5182C14.6019 39.3529 14.5531 39.1183 14.663 38.9943C14.7739 38.8701 15.0088 38.905 15.181 39.0728C15.3546 39.2378 15.4075 39.4742 15.2906 39.5967ZM16.7657 40.047C16.7176 40.2075 16.4926 40.2805 16.2661 40.2123C16.0399 40.1421 15.8919 39.9539 15.9375 39.7916C15.9846 39.63 16.2104 39.5539 16.4387 39.627C16.6645 39.6969 16.8128 39.8836 16.7657 40.047ZM18.4447 40.2379C18.4504 40.4071 18.2582 40.5473 18.0204 40.5504C17.7812 40.5557 17.5878 40.4188 17.5853 40.2525C17.5853 40.0818 17.7731 39.9428 18.0121 39.9388C18.2499 39.934 18.4447 40.0699 18.4447 40.2379ZM20.0939 40.1731C20.1225 40.3381 19.9571 40.5076 19.7211 40.5526C19.4889 40.5961 19.274 40.4943 19.2444 40.3307C19.2155 40.1615 19.384 39.9922 19.6157 39.9483C19.8522 39.9061 20.0638 40.0054 20.0939 40.1731Z" fill="#F7F7F7"/>
</svg>
