<svg width="50" height="51" viewBox="0 0 50 51" fill="none" xmlns="http://www.w3.org/2000/svg">
<path d="M22.9993 2.03598C24.2373 1.32119 25.7627 1.32119 27.0007 2.03598L44.6499 12.2257C45.888 12.9405 46.6506 14.2615 46.6506 15.6911V36.0706C46.6506 37.5002 45.888 38.8212 44.6499 39.536L27.0007 49.7257C25.7627 50.4405 24.2373 50.4405 22.9993 49.7257L5.3501 39.536C4.11204 38.8212 3.34937 37.5002 3.34937 36.0706V15.6911C3.34937 14.2615 4.11204 12.9405 5.3501 12.2257L22.9993 2.03598Z" stroke="url(#paint0_linear_663_88)" stroke-opacity="0.3" stroke-width="0.800293"/>
<path d="M23.6076 9.28443C24.4693 8.78694 25.5309 8.78694 26.3926 9.28443L38.6764 16.3765C39.5381 16.874 40.0689 17.7934 40.0689 18.7884V32.9725C40.0689 33.9675 39.5381 34.8869 38.6764 35.3844L26.3926 42.4765C25.5309 42.974 24.4693 42.974 23.6076 42.4765L11.3238 35.3844C10.4621 34.8869 9.93126 33.9675 9.93126 32.9725V18.7884C9.93126 17.7934 10.4621 16.874 11.3238 16.3765L23.6076 9.28443Z" fill="url(#paint1_linear_663_88)" fill-opacity="0.2"/>
<g clip-path="url(#clip0_663_88)">
<path d="M16.7117 16.4805L18.2204 33.4005L24.9907 35.2805L31.7787 33.3981L33.2897 16.4805H16.7128H16.7117ZM30.0056 22.0147H22.065L22.2541 24.1403H29.8176L29.2477 30.5111L24.9907 31.6908L20.7396 30.5111L20.4493 27.2517H22.5326L22.6807 28.9084L24.9919 29.5312L24.9966 29.53L27.309 28.9061L27.5487 26.2153H20.3565L19.7972 19.9397H30.1924L30.0068 22.0147H30.0056Z" fill="#E44D26"/>
</g>
<defs>
<linearGradient id="paint0_linear_663_88" x1="0" y1="0.880859" x2="50" y2="50.8809" gradientUnits="userSpaceOnUse">
<stop stop-color="white"/>
<stop offset="0.765625" stop-color="white" stop-opacity="0"/>
</linearGradient>
<linearGradient id="paint1_linear_663_88" x1="7.6001" y1="8.48047" x2="42.4001" y2="43.2805" gradientUnits="userSpaceOnUse">
<stop stop-color="white"/>
<stop offset="0.828125" stop-color="white" stop-opacity="0"/>
</linearGradient>
<clipPath id="clip0_663_88">
<rect width="18.8" height="18.8" fill="white" transform="translate(15.6001 16.4805)"/>
</clipPath>
</defs>
</svg>
