<svg width="51" height="51" viewBox="0 0 51 51" fill="none" xmlns="http://www.w3.org/2000/svg">
<path d="M23.761 2.03598C24.999 1.32119 26.5244 1.32119 27.7625 2.03598L45.4116 12.2257C46.6497 12.9405 47.4124 14.2615 47.4124 15.6911V36.0706C47.4124 37.5002 46.6497 38.8212 45.4116 39.536L27.7625 49.7257C26.5244 50.4405 24.999 50.4405 23.761 49.7257L6.11182 39.536C4.87376 38.8212 4.11108 37.5002 4.11108 36.0706V15.6911C4.11108 14.2615 4.87376 12.9405 6.11182 12.2257L23.761 2.03598Z" stroke="url(#paint0_linear_663_112)" stroke-opacity="0.3" stroke-width="0.800293"/>
<path d="M24.3688 9.28443C25.2305 8.78694 26.2921 8.78694 27.1538 9.28443L39.4377 16.3765C40.2993 16.874 40.8302 17.7934 40.8302 18.7884V32.9725C40.8302 33.9675 40.2993 34.8869 39.4377 35.3844L27.1538 42.4765C26.2921 42.974 25.2305 42.974 24.3688 42.4765L12.085 35.3844C11.2233 34.8869 10.6925 33.9675 10.6925 32.9725V18.7884C10.6925 17.7934 11.2233 16.874 12.085 16.3765L24.3688 9.28443Z" fill="url(#paint1_linear_663_112)" fill-opacity="0.2"/>
<g clip-path="url(#clip0_663_112)">
<path d="M26.7815 20.8684C26.2895 19.6715 26.3585 18.3249 27.0689 17.2416L27.6 16.481C26.6177 18.3218 27.553 20.5825 29.057 21.7677C29.4595 22.0827 29.9081 22.3337 30.3871 22.5118C30.5156 22.5588 30.6613 22.609 30.7945 22.6427C32.4755 23.0657 33.8456 22.7735 34.661 21.5546C34.6359 21.5922 34.6038 21.6517 34.5631 21.7269C34.1996 22.4006 33.1359 24.3723 30.0511 23.7534C29.9923 23.7417 29.9359 23.7221 29.8795 23.7041L29.8294 23.6868L29.7934 23.6751C29.7768 23.6693 29.76 23.6639 29.7432 23.6586C29.6975 23.6429 29.6521 23.6265 29.6069 23.6093C28.3654 23.1362 27.3008 22.1398 26.7815 20.8684V20.8684Z" fill="#0868AC"/>
<path d="M22.7228 18.8041C21.5188 20.6019 21.5846 23.0091 22.5238 24.911C22.6975 25.2649 22.897 25.6055 23.1207 25.9301C23.2845 26.1753 23.4646 26.4471 23.6753 26.6367C23.7623 26.7362 23.8532 26.8325 23.9456 26.9273L23.9989 26.9821L24.0169 27.0001C24.1104 27.0947 24.2062 27.1869 24.3044 27.2767L24.3051 27.2774L24.3067 27.279C24.4251 27.3861 24.5466 27.4898 24.671 27.59L24.7023 27.6151C24.812 27.7028 24.924 27.789 25.0391 27.8712L25.0438 27.8743L25.0493 27.8783C25.0861 27.9049 25.1237 27.9307 25.1613 27.9558L25.2028 27.984C25.2274 28.0003 25.2517 28.017 25.2757 28.0341C25.3579 28.089 25.441 28.1415 25.5256 28.1932L25.5491 28.2065L25.5608 28.2143C25.6515 28.2684 25.7432 28.3209 25.8358 28.3718L25.8601 28.3843L25.8914 28.4015C25.9321 28.4235 25.9729 28.4462 26.0152 28.4673L26.0387 28.4791C26.1598 28.5408 26.2826 28.5993 26.4068 28.6545L26.4319 28.6647C26.5485 28.7161 26.6663 28.7647 26.7852 28.8104L26.8087 28.819C26.8894 28.8504 26.97 28.8786 27.0515 28.9068L27.0922 28.9209L27.1612 28.9436C27.1917 28.953 27.2223 28.964 27.252 28.9741C27.3374 29.0039 27.4228 29.0329 27.5121 29.0486C33.7271 30.117 35.1621 25.1507 35.1621 25.1507C33.8689 27.084 31.3638 28.0067 28.691 27.2861C28.5727 27.2537 28.4551 27.2184 28.3385 27.1803C28.3072 27.1709 28.2759 27.1599 28.2445 27.149L28.2328 27.1451C28.1502 27.1174 28.0682 27.0881 27.9868 27.0573L27.9845 27.0558C27.8493 27.0046 27.7156 26.9498 27.5834 26.8913L27.5395 26.8717C27.3855 26.802 27.234 26.7271 27.0852 26.6469L27.0523 26.6296L26.9583 26.5795C26.8725 26.5315 26.7876 26.4819 26.7037 26.4307C26.538 26.3295 26.376 26.2223 26.218 26.1095C26.104 26.0271 25.9919 25.942 25.882 25.8541L25.8546 25.8314C25.8386 25.8185 25.8226 25.8054 25.8068 25.7922C24.6365 24.8334 23.709 23.5229 23.2688 22.0377C22.8066 20.4961 22.9061 18.7665 23.7067 17.3628L22.7228 18.8041Z" fill="#0868AC"/>
<path d="M17.5558 20.8968C15.892 23.38 16.0988 26.6113 17.3702 29.2495C17.3937 29.3004 17.4195 29.3506 17.4446 29.3999L17.4634 29.4375L17.4869 29.4837C17.5066 29.5248 17.5275 29.5653 17.5496 29.6052L17.5597 29.6247L17.6146 29.7266L17.6263 29.7477C17.6655 29.8198 17.7062 29.8919 17.7477 29.9639L17.7611 29.9874C17.8238 30.0969 17.8894 30.2048 17.9577 30.3109L17.9718 30.3344L18.018 30.4073C18.0838 30.5091 18.1512 30.6117 18.2217 30.7128V30.7136C18.2233 30.716 18.2252 30.7184 18.2271 30.7206L18.2459 30.7465L18.2616 30.7684C18.3227 30.8546 18.3846 30.9407 18.448 31.0253L18.5185 31.1178C18.6721 31.3167 18.8309 31.5116 18.9948 31.7021L18.9995 31.7076L19.0034 31.7115L19.0089 31.7178C19.1751 31.905 19.347 32.0871 19.5243 32.2638L19.5478 32.2873L19.6035 32.3421C19.6922 32.4289 19.7826 32.514 19.8745 32.5975L19.9003 32.621L19.9207 32.6382C20.0187 32.7257 20.118 32.8119 20.2184 32.8967L20.2622 32.9335C20.3288 32.9884 20.3962 33.0432 20.4643 33.0965L20.5717 33.1819C20.6469 33.239 20.7221 33.2954 20.798 33.3503L20.8106 33.3597L20.8811 33.4114L20.903 33.427C20.9719 33.4772 21.0417 33.5242 21.1122 33.5712L21.1231 33.579C21.1547 33.6003 21.1861 33.6219 21.2171 33.644C21.3479 33.7299 21.4803 33.8132 21.6143 33.8939L21.6566 33.919C21.7752 33.989 21.8951 34.0569 22.0161 34.1226L22.0576 34.1454L22.1039 34.1704C22.1501 34.1955 22.1955 34.2206 22.2425 34.2448L22.2621 34.2542L22.2856 34.266L22.3122 34.2793C22.3279 34.2871 22.3443 34.295 22.3608 34.3044C22.4579 34.3522 22.5551 34.3992 22.6538 34.4454L22.6906 34.4618L22.7156 34.4736C22.9604 34.585 23.2095 34.687 23.4622 34.7791L23.47 34.7814L23.5029 34.794C23.6815 34.8582 23.8617 34.9177 24.0434 34.9726C24.1343 35.0031 24.2259 35.0329 24.3199 35.0509C32.3702 36.5752 34.7085 30.0297 34.7085 30.0297C32.7447 32.6852 29.2588 33.3863 25.9555 32.6061C25.8312 32.5759 25.7084 32.5401 25.5873 32.4988L25.4949 32.4698C25.3758 32.4322 25.2576 32.3915 25.1401 32.35L25.0915 32.3319C24.9857 32.2928 24.8823 32.2536 24.7782 32.2113L24.6904 32.1753C24.5768 32.1283 24.464 32.0805 24.3528 32.0296L24.3168 32.0139C24.2106 31.9646 24.1051 31.914 24.0003 31.8619L23.9682 31.8447C23.9514 31.8367 23.9347 31.8286 23.9181 31.8204L23.7504 31.7319L23.6972 31.7037C23.6797 31.6942 23.6622 31.6848 23.6447 31.6755L23.5507 31.6238C23.4614 31.5745 23.3736 31.522 23.2859 31.4695L23.2522 31.4499L23.1974 31.4186C23.061 31.3344 22.9263 31.2477 22.7932 31.1585L22.7595 31.135C22.4252 30.9121 22.1047 30.6691 21.7999 30.4073C21.7068 30.3285 21.6149 30.2484 21.5242 30.1668L21.5117 30.1551C21.3926 30.0455 21.2756 29.9337 21.1607 29.8198C21.0944 29.7542 21.0291 29.6877 20.9649 29.62L20.9383 29.5934C20.8368 29.4874 20.7376 29.3792 20.6406 29.2691L20.6359 29.2644L20.6343 29.2621C20.5513 29.1681 20.4698 29.0709 20.3899 28.9738L20.3257 28.8947C20.2437 28.793 20.1635 28.6898 20.0852 28.5853C20.0163 28.4913 19.9481 28.3988 19.8815 28.304C18.0485 25.7081 17.3898 22.1267 18.8554 19.186L17.5558 20.8968Z" fill="#0868AC"/>
</g>
<defs>
<linearGradient id="paint0_linear_663_112" x1="0.761719" y1="0.880859" x2="50.7617" y2="50.8809" gradientUnits="userSpaceOnUse">
<stop stop-color="white"/>
<stop offset="0.765625" stop-color="white" stop-opacity="0"/>
</linearGradient>
<linearGradient id="paint1_linear_663_112" x1="8.36133" y1="8.48047" x2="43.1613" y2="43.2805" gradientUnits="userSpaceOnUse">
<stop stop-color="white"/>
<stop offset="0.828125" stop-color="white" stop-opacity="0"/>
</linearGradient>
<clipPath id="clip0_663_112">
<rect width="18.8" height="18.8" fill="white" transform="translate(16.3613 16.4805)"/>
</clipPath>
</defs>
</svg>
