<svg width="50" height="54" viewBox="0 0 50 54" fill="none" xmlns="http://www.w3.org/2000/svg">
<rect width="50" height="54" rx="5" fill="#1A1A1A"/>
<path d="M9.90602 17.3827C6.86989 22.0248 7.24784 28.0642 9.56717 32.9966C9.62233 33.1148 9.68008 33.2311 9.73697 33.3475C9.77346 33.4212 9.80768 33.497 9.84546 33.5698C9.86684 33.6133 9.8908 33.6559 9.91304 33.6975C9.95265 33.776 9.99314 33.8508 10.034 33.9274C10.106 34.0627 10.1799 34.197 10.2555 34.3313C10.2972 34.4052 10.3386 34.4789 10.3818 34.5527C10.4653 34.6965 10.5511 34.8384 10.6388 34.9803C10.6753 35.0409 10.7108 35.1014 10.7481 35.1601C10.8691 35.3521 10.9927 35.5432 11.1203 35.7314C11.1235 35.7363 11.1269 35.7419 11.1309 35.7465C11.151 35.7768 11.1732 35.8061 11.1936 35.8365C11.304 35.9982 11.4177 36.158 11.5329 36.3161C11.5751 36.3737 11.6179 36.4315 11.6605 36.4891C11.7633 36.6263 11.8678 36.7625 11.974 36.8988C12.0136 36.9498 12.0535 37.0009 12.0936 37.0511C12.2363 37.2298 12.3817 37.4077 12.5303 37.5818C12.5329 37.5845 12.5365 37.5885 12.5391 37.5913C12.5454 37.5988 12.5507 37.6036 12.5561 37.6111C12.701 37.7794 12.8495 37.944 12.9998 38.1087C13.0465 38.1598 13.0941 38.2109 13.1421 38.261C13.2586 38.3859 13.3769 38.5088 13.4965 38.6309C13.545 38.68 13.593 38.7302 13.6415 38.7775C13.801 38.9374 13.9624 39.0944 14.127 39.2477C14.1297 39.2504 14.1319 39.2526 14.1346 39.2543C14.1625 39.2809 14.1915 39.3054 14.219 39.331C14.364 39.4644 14.5116 39.5968 14.6601 39.7273C14.7205 39.7794 14.782 39.8304 14.8428 39.8825C14.9643 39.9857 15.087 40.0878 15.2106 40.1881C15.2759 40.2411 15.3413 40.294 15.4071 40.347C15.5436 40.4539 15.6811 40.5589 15.8198 40.6621C15.8704 40.7008 15.9193 40.7386 15.97 40.7755C15.9843 40.786 15.9971 40.7963 16.0114 40.8067C16.143 40.9032 16.2777 40.9959 16.412 41.0887C16.4698 41.1294 16.5272 41.1719 16.5854 41.2116C16.7917 41.3507 17.0012 41.4879 17.2128 41.6203C17.2702 41.6554 17.3285 41.6894 17.3862 41.7244C17.5419 41.8199 17.6984 41.9136 17.8571 42.0054C17.9429 42.0546 18.031 42.1009 18.1177 42.1482C18.2297 42.2107 18.3409 42.274 18.4547 42.3346C18.4805 42.3479 18.5071 42.3611 18.5325 42.3743C18.5783 42.398 18.6246 42.4206 18.6704 42.4453C18.8469 42.5351 19.0248 42.623 19.2044 42.7082C19.2427 42.7262 19.2795 42.7442 19.3174 42.7622C19.5233 42.8577 19.7309 42.9495 19.9403 43.0375C19.9906 43.0592 20.0412 43.08 20.0919 43.1008C20.2858 43.1803 20.4824 43.2589 20.6797 43.3326C20.7047 43.3421 20.7287 43.3506 20.7536 43.36C20.9701 43.4404 21.1889 43.5151 21.409 43.588C21.4615 43.6041 21.5144 43.622 21.5673 43.6381C21.7914 43.71 22.0129 43.7961 22.244 43.8416C36.9273 46.69 41.1923 34.455 41.1923 34.455C37.6103 39.4195 31.2518 40.7289 25.2273 39.2711C24.9992 39.2162 24.7778 39.1405 24.555 39.0706C24.4985 39.0525 24.4429 39.0346 24.3873 39.0166C24.1699 38.9457 23.9542 38.871 23.74 38.7924C23.7106 38.7811 23.6808 38.7697 23.651 38.7584C23.459 38.6865 23.2691 38.6108 23.0801 38.5332C23.0267 38.5105 22.9734 38.4887 22.92 38.4661C22.7128 38.3791 22.507 38.2882 22.3037 38.1936C22.2619 38.1746 22.2219 38.1547 22.1805 38.1359C22.0059 38.0517 21.8328 37.9666 21.6608 37.8786C21.611 37.853 21.5611 37.8284 21.5105 37.802C21.3753 37.7318 21.2417 37.657 21.1084 37.5841C21.0191 37.5342 20.9284 37.4869 20.8399 37.4346C20.677 37.342 20.5172 37.2455 20.3579 37.1471C20.3041 37.1149 20.2494 37.0839 20.1951 37.0507C19.9836 36.9181 19.7745 36.7809 19.5675 36.6419C19.5103 36.6031 19.4546 36.5616 19.3982 36.5217C19.2481 36.4186 19.0987 36.3136 18.9516 36.2059C18.9028 36.1707 18.8558 36.133 18.8077 36.0981C18.6656 35.9913 18.5251 35.8831 18.3855 35.7734C18.3221 35.7234 18.2598 35.6731 18.1983 35.6231C18.0704 35.5189 17.9433 35.4138 17.8172 35.3061C17.7604 35.2579 17.7035 35.2096 17.6474 35.1615C17.4874 35.0214 17.3291 34.8805 17.173 34.7357C17.1565 34.7206 17.1387 34.7055 17.121 34.6894C16.952 34.5314 16.7861 34.3697 16.622 34.2069C16.5744 34.1586 16.5282 34.1113 16.4816 34.0631C16.3602 33.9401 16.2406 33.8162 16.1232 33.6895C16.076 33.6393 16.0289 33.5901 15.9827 33.54C15.8333 33.3773 15.6866 33.2127 15.5429 33.0452C15.5358 33.0367 15.5282 33.0292 15.5211 33.0206C15.3691 32.8437 15.2205 32.663 15.0751 32.4805C15.0355 32.4304 14.9973 32.3821 14.9582 32.3329C14.8497 32.1939 14.7421 32.0529 14.6372 31.9109C14.5978 31.8598 14.5585 31.8075 14.5195 31.7548C14.3931 31.5804 14.2696 31.4065 14.1487 31.2298C10.8039 26.3764 9.60236 19.6827 12.2757 14.1854" fill="#0868AC"/>
<path d="M19.1258 13.5559C16.886 16.9414 17.0075 21.4733 18.7548 25.0538C19.0478 25.6543 19.3771 26.2364 19.7454 26.7909C20.081 27.2959 20.453 27.8972 20.8984 28.3032C21.0599 28.4899 21.2286 28.6719 21.401 28.851C21.4445 28.8978 21.489 28.9426 21.5335 28.9882C21.7008 29.1588 21.8709 29.3265 22.0469 29.4894C22.0541 29.4952 22.0605 29.5028 22.0677 29.5085C22.0697 29.5105 22.0715 29.5112 22.0727 29.5134C22.2673 29.6926 22.4682 29.8651 22.6725 30.0347C22.7178 30.0708 22.7627 30.1089 22.8085 30.1461C23.013 30.3109 23.2217 30.4729 23.4358 30.6273C23.4421 30.6322 23.4476 30.6368 23.454 30.6416C23.5483 30.7102 23.6444 30.774 23.7402 30.8398C23.7859 30.8713 23.8296 30.9046 23.8758 30.9341C24.0287 31.037 24.1833 31.137 24.3407 31.2333C24.363 31.2476 24.3847 31.26 24.4065 31.2733C24.5421 31.3552 24.6795 31.4363 24.8175 31.5144C24.8655 31.5429 24.9145 31.5678 24.9636 31.5944C25.0588 31.6469 25.1541 31.7002 25.2511 31.7507C25.2656 31.7583 25.2806 31.765 25.2946 31.7717C25.492 31.8737 25.6911 31.9718 25.8943 32.0652C25.9378 32.0852 25.9828 32.1033 26.0267 32.1224C26.1891 32.1947 26.3534 32.2653 26.5184 32.332C26.5883 32.3597 26.659 32.3863 26.7289 32.413C26.8786 32.4711 27.0287 32.5245 27.1803 32.5778C27.2487 32.6007 27.3159 32.6245 27.3843 32.6464C27.5998 32.717 27.8125 32.8056 28.0371 32.8446C39.6019 34.857 42.2718 25.5047 42.2718 25.5047C39.8651 29.1456 35.2042 30.8826 30.2306 29.5268C30.0096 29.4658 29.7919 29.3991 29.5755 29.3276C29.5094 29.3067 29.4445 29.2838 29.3787 29.2609C29.2249 29.2084 29.0721 29.1532 28.9205 29.0951C28.8512 29.0684 28.7818 29.0418 28.7137 29.0141C28.5477 28.9474 28.3835 28.8778 28.2207 28.8055C28.1762 28.7854 28.1313 28.7674 28.0878 28.7463C27.8837 28.6529 27.6827 28.5548 27.4845 28.4519C27.3825 28.3995 27.2822 28.3442 27.1819 28.2899C27.1239 28.2585 27.0653 28.2271 27.0073 28.1956C26.8785 28.1223 26.7505 28.0459 26.6245 27.9688C26.5945 27.9507 26.5632 27.9336 26.5328 27.9145C26.3764 27.8183 26.2221 27.7192 26.0693 27.6172C26.0221 27.5858 25.9767 27.5514 25.9295 27.5191C25.8289 27.4505 25.7282 27.3809 25.6293 27.3104C25.4161 27.156 25.2088 26.994 25.0043 26.8301C24.9571 26.7911 24.9099 26.7529 24.8636 26.7139C22.6865 24.9084 20.9608 22.4414 20.1403 19.6438C19.2805 16.7424 19.4659 13.4854 20.9556 10.8423" fill="#0868AC"/>
<path d="M27.1936 11.1032C25.8851 13.0644 25.7565 15.5 26.6645 17.6662C27.6219 19.9653 29.5839 21.7691 31.8735 22.6242C31.9679 22.6599 32.0623 22.6919 32.158 22.7249C32.1998 22.7377 32.2411 22.7524 32.2834 22.7651C32.4183 22.8082 32.5522 22.8585 32.6916 22.8851C39.0192 24.1303 40.7354 19.5779 41.1923 18.9078C39.6888 21.1127 37.1623 21.6418 34.0623 20.8755C33.8175 20.8147 33.5484 20.7248 33.3123 20.6396C33.0097 20.5297 32.7115 20.4045 32.4216 20.2627C31.8712 19.9935 31.3464 19.6664 30.8601 19.2921C28.086 17.1485 26.3628 13.0587 28.1729 9.72803" fill="#0868AC"/>
</svg>
