<svg width="50" height="54" viewBox="0 0 50 54" fill="none" xmlns="http://www.w3.org/2000/svg">
<rect width="50" height="54" rx="5" fill="#1A1A1A"/>
<path d="M9.90578 17.3827C6.86965 22.0248 7.2476 28.0642 9.56693 32.9966C9.62209 33.1148 9.67984 33.2311 9.73673 33.3475C9.77322 33.4212 9.80744 33.497 9.84522 33.5698C9.86659 33.6133 9.89056 33.6559 9.91279 33.6975C9.95241 33.776 9.99289 33.8508 10.0338 33.9274C10.1058 34.0627 10.1796 34.197 10.2552 34.3313C10.297 34.4052 10.3383 34.4789 10.3815 34.5527C10.4651 34.6965 10.5509 34.8384 10.6385 34.9803C10.675 35.0409 10.7105 35.1014 10.7479 35.1601C10.8689 35.3521 10.9925 35.5432 11.1201 35.7314C11.1232 35.7363 11.1267 35.7419 11.1307 35.7465C11.1507 35.7768 11.173 35.8061 11.1934 35.8365C11.3037 35.9982 11.4175 36.158 11.5327 36.3161C11.5749 36.3737 11.6176 36.4315 11.6603 36.4891C11.763 36.6263 11.8675 36.7625 11.9737 36.8988C12.0134 36.9498 12.0533 37.0009 12.0934 37.0511C12.2361 37.2298 12.3815 37.4077 12.53 37.5818C12.5327 37.5845 12.5363 37.5885 12.5389 37.5913C12.5451 37.5988 12.5504 37.6036 12.5558 37.6111C12.7008 37.7794 12.8492 37.944 12.9996 38.1087C13.0462 38.1598 13.0938 38.2109 13.1419 38.261C13.2583 38.3859 13.3766 38.5088 13.4963 38.6309C13.5447 38.68 13.5928 38.7302 13.6412 38.7775C13.8008 38.9374 13.9622 39.0944 14.1268 39.2477C14.1295 39.2504 14.1316 39.2526 14.1343 39.2543C14.1623 39.2809 14.1912 39.3054 14.2188 39.331C14.3637 39.4644 14.5114 39.5968 14.6598 39.7273C14.7203 39.7794 14.7817 39.8304 14.8426 39.8825C14.964 39.9857 15.0868 40.0878 15.2104 40.1881C15.2757 40.2411 15.3411 40.294 15.4068 40.347C15.5434 40.4539 15.6808 40.5589 15.8195 40.6621C15.8702 40.7008 15.9191 40.7386 15.9698 40.7755C15.984 40.786 15.9969 40.7963 16.0111 40.8067C16.1427 40.9032 16.2774 40.9959 16.4117 41.0887C16.4696 41.1294 16.5269 41.1719 16.5852 41.2116C16.7915 41.3507 17.0009 41.4879 17.2126 41.6203C17.2699 41.6554 17.3282 41.6894 17.386 41.7244C17.5416 41.8199 17.6982 41.9136 17.8568 42.0054C17.9427 42.0546 18.0307 42.1009 18.1174 42.1482C18.2295 42.2107 18.3407 42.274 18.4544 42.3346C18.4802 42.3479 18.5069 42.3611 18.5323 42.3743C18.578 42.398 18.6244 42.4206 18.6701 42.4453C18.8466 42.5351 19.0245 42.623 19.2041 42.7082C19.2425 42.7262 19.2793 42.7442 19.3172 42.7622C19.523 42.8577 19.7306 42.9495 19.94 43.0375C19.9903 43.0592 20.041 43.08 20.0917 43.1008C20.2856 43.1803 20.4821 43.2589 20.6795 43.3326C20.7044 43.3421 20.7285 43.3506 20.7533 43.36C20.9699 43.4404 21.1887 43.5151 21.4088 43.588C21.4612 43.6041 21.5141 43.622 21.567 43.6381C21.7911 43.71 22.0126 43.7961 22.2438 43.8416C36.927 46.69 41.1921 34.455 41.1921 34.455C37.61 39.4195 31.2515 40.7289 25.227 39.2711C24.9989 39.2162 24.7775 39.1405 24.5547 39.0706C24.4983 39.0525 24.4427 39.0346 24.3871 39.0166C24.1697 38.9457 23.954 38.871 23.7397 38.7924C23.7104 38.7811 23.6806 38.7697 23.6508 38.7584C23.4587 38.6865 23.2688 38.6108 23.0798 38.5332C23.0265 38.5105 22.9732 38.4887 22.9197 38.4661C22.7126 38.3791 22.5067 38.2882 22.3035 38.1936C22.2617 38.1746 22.2216 38.1547 22.1803 38.1359C22.0056 38.0517 21.8326 37.9666 21.6605 37.8786C21.6108 37.853 21.5609 37.8284 21.5103 37.802C21.3751 37.7318 21.2415 37.657 21.1081 37.5841C21.0189 37.5342 20.9282 37.4869 20.8397 37.4346C20.6768 37.342 20.5169 37.2455 20.3577 37.1471C20.3038 37.1149 20.2492 37.0839 20.1949 37.0507C19.9833 36.9181 19.7742 36.7809 19.5673 36.6419C19.5101 36.6031 19.4544 36.5616 19.3979 36.5217C19.2479 36.4186 19.0985 36.3136 18.9513 36.2059C18.9025 36.1707 18.8556 36.133 18.8074 36.0981C18.6654 35.9913 18.5248 35.8831 18.3852 35.7734C18.3219 35.7234 18.2596 35.6731 18.1981 35.6231C18.0701 35.5189 17.9431 35.4138 17.817 35.3061C17.7601 35.2579 17.7032 35.2096 17.6472 35.1615C17.4871 35.0214 17.3289 34.8805 17.1728 34.7357C17.1563 34.7206 17.1384 34.7055 17.1207 34.6894C16.9518 34.5314 16.7859 34.3697 16.6218 34.2069C16.5742 34.1586 16.528 34.1113 16.4814 34.0631C16.3599 33.9401 16.2403 33.8162 16.123 33.6895C16.0758 33.6393 16.0286 33.5901 15.9824 33.54C15.833 33.3773 15.6863 33.2127 15.5426 33.0452C15.5355 33.0367 15.528 33.0292 15.5208 33.0206C15.3688 32.8437 15.2203 32.663 15.0749 32.4805C15.0353 32.4304 14.9971 32.3821 14.958 32.3329C14.8495 32.1939 14.7419 32.0529 14.6369 31.9109C14.5975 31.8598 14.5583 31.8075 14.5193 31.7548C14.3929 31.5804 14.2694 31.4065 14.1485 31.2298C10.8037 26.3764 9.60212 19.6827 12.2755 14.1854" fill="#0868AC"/>
<path d="M19.1256 13.5559C16.8857 16.9414 17.0073 21.4733 18.7545 25.0538C19.0475 25.6543 19.3769 26.2364 19.7452 26.7909C20.0808 27.2959 20.4528 27.8972 20.8982 28.3032C21.0597 28.4899 21.2284 28.6719 21.4008 28.851C21.4443 28.8978 21.4888 28.9426 21.5332 28.9882C21.7006 29.1588 21.8707 29.3265 22.0466 29.4894C22.0539 29.4952 22.0602 29.5028 22.0675 29.5085C22.0694 29.5105 22.0713 29.5112 22.0724 29.5134C22.2671 29.6926 22.468 29.8651 22.6722 30.0347C22.7175 30.0708 22.7625 30.1089 22.8082 30.1461C23.0128 30.3109 23.2215 30.4729 23.4355 30.6273C23.4419 30.6322 23.4474 30.6368 23.4538 30.6416C23.5481 30.7102 23.6442 30.774 23.7399 30.8398C23.7857 30.8713 23.8293 30.9046 23.8755 30.9341C24.0285 31.037 24.1831 31.137 24.3404 31.2333C24.3628 31.2476 24.3845 31.26 24.4063 31.2733C24.5419 31.3552 24.6793 31.4363 24.8173 31.5144C24.8653 31.5429 24.9143 31.5678 24.9633 31.5944C25.0585 31.6469 25.1538 31.7002 25.2509 31.7507C25.2653 31.7583 25.2804 31.765 25.2944 31.7717C25.4917 31.8737 25.6909 31.9718 25.894 32.0652C25.9375 32.0852 25.9826 32.1033 26.0265 32.1224C26.1888 32.1947 26.3531 32.2653 26.5182 32.332C26.588 32.3597 26.6588 32.3863 26.7287 32.413C26.8783 32.4711 27.0285 32.5245 27.18 32.5778C27.2485 32.6007 27.3156 32.6245 27.3841 32.6464C27.5995 32.717 27.8123 32.8056 28.0368 32.8446C39.6017 34.857 42.2716 25.5047 42.2716 25.5047C39.8649 29.1456 35.204 30.8826 30.2303 29.5268C30.0094 29.4658 29.7916 29.3991 29.5753 29.3276C29.5091 29.3067 29.4443 29.2838 29.3784 29.2609C29.2247 29.2084 29.0718 29.1532 28.9203 29.0951C28.851 29.0684 28.7816 29.0418 28.7134 29.0141C28.5474 28.9474 28.3832 28.8778 28.2204 28.8055C28.176 28.7854 28.1311 28.7674 28.0876 28.7463C27.8834 28.6529 27.6824 28.5548 27.4842 28.4519C27.3822 28.3995 27.2819 28.3442 27.1817 28.2899C27.1237 28.2585 27.0651 28.2271 27.0071 28.1956C26.8782 28.1223 26.7503 28.0459 26.6242 27.9688C26.5943 27.9507 26.563 27.9336 26.5326 27.9145C26.3761 27.8183 26.2219 27.7192 26.069 27.6172C26.0219 27.5858 25.9764 27.5514 25.9292 27.5191C25.8286 27.4505 25.7279 27.3809 25.629 27.3104C25.4158 27.156 25.2086 26.994 25.004 26.8301C24.9568 26.7911 24.9097 26.7529 24.8633 26.7139C22.6862 24.9084 20.9606 22.4414 20.1401 19.6438C19.2802 16.7424 19.4657 13.4854 20.9554 10.8423" fill="#0868AC"/>
<path d="M27.1933 11.1032C25.8849 13.0644 25.7563 15.5 26.6643 17.6662C27.6217 19.9653 29.5836 21.7691 31.8732 22.6242C31.9677 22.6599 32.062 22.6919 32.1578 22.7249C32.1995 22.7377 32.2409 22.7524 32.2832 22.7651C32.418 22.8082 32.552 22.8585 32.6913 22.8851C39.019 24.1303 40.7351 19.5779 41.1921 18.9078C39.6886 21.1127 37.162 21.6418 34.0621 20.8755C33.8173 20.8147 33.5481 20.7248 33.3121 20.6396C33.0095 20.5297 32.7112 20.4045 32.4214 20.2627C31.8709 19.9935 31.3462 19.6664 30.8599 19.2921C28.0857 17.1485 26.3625 13.0587 28.1726 9.72803" fill="#0868AC"/>
</svg>
