<svg width="51" height="51" viewBox="0 0 51 51" fill="none" xmlns="http://www.w3.org/2000/svg">
<path d="M23.4397 2.03598C24.6778 1.32119 26.2031 1.32119 27.4412 2.03598L45.0903 12.2257C46.3284 12.9405 47.0911 14.2615 47.0911 15.6911V36.0706C47.0911 37.5002 46.3284 38.8212 45.0903 39.536L27.4412 49.7257C26.2031 50.4405 24.6778 50.4405 23.4397 49.7257L5.79053 39.536C4.55247 38.8212 3.78979 37.5002 3.78979 36.0706V15.6911C3.78979 14.2615 4.55247 12.9405 5.79053 12.2257L23.4397 2.03598Z" stroke="url(#paint0_linear_663_94)" stroke-opacity="0.3" stroke-width="0.800293"/>
<path d="M24.048 9.28443C24.9097 8.78694 25.9713 8.78694 26.833 9.28443L39.1169 16.3765C39.9785 16.874 40.5094 17.7934 40.5094 18.7884V32.9725C40.5094 33.9675 39.9785 34.8869 39.1169 35.3844L26.833 42.4765C25.9713 42.974 24.9097 42.974 24.048 42.4765L11.7642 35.3844C10.9025 34.8869 10.3717 33.9675 10.3717 32.9725V18.7884C10.3717 17.7934 10.9025 16.874 11.7642 16.3765L24.048 9.28443Z" fill="url(#paint1_linear_663_94)" fill-opacity="0.2"/>
<g clip-path="url(#clip0_663_94)">
<path d="M26.4019 28.9429V27.4118H28.6985V28.1774H31.7607V26.6463H27.933C27.0909 26.6463 26.4019 25.9573 26.4019 25.1152V22.8187C26.4019 21.9766 27.0909 21.2876 27.933 21.2876H32.5262C33.3683 21.2876 34.0572 21.9766 34.0572 22.8187V24.3497H31.7607V23.5842H28.6985V25.1152H32.5262C33.3683 25.1152 34.0572 25.8042 34.0572 26.6463V28.9429C34.0572 29.785 33.3683 30.474 32.5262 30.474H27.933C27.0909 30.474 26.4019 29.785 26.4019 28.9429ZM21.8088 21.2876V28.1774H19.5122V26.6463H17.2156V28.1774C17.2156 29.4482 18.2414 30.474 19.5122 30.474H21.8088C23.0795 30.474 24.1053 29.4482 24.1053 28.1774V21.2876H21.8088Z" fill="#FEE736"/>
</g>
<defs>
<linearGradient id="paint0_linear_663_94" x1="0.44043" y1="0.880859" x2="50.4404" y2="50.8809" gradientUnits="userSpaceOnUse">
<stop stop-color="white"/>
<stop offset="0.765625" stop-color="white" stop-opacity="0"/>
</linearGradient>
<linearGradient id="paint1_linear_663_94" x1="8.04053" y1="8.48047" x2="42.8405" y2="43.2805" gradientUnits="userSpaceOnUse">
<stop stop-color="white"/>
<stop offset="0.828125" stop-color="white" stop-opacity="0"/>
</linearGradient>
<clipPath id="clip0_663_94">
<rect width="18.8" height="18.8" fill="white" transform="translate(16.0405 16.4805)"/>
</clipPath>
</defs>
</svg>
