<svg width="50" height="54" viewBox="0 0 50 54" fill="none" xmlns="http://www.w3.org/2000/svg">
<rect width="50" height="54" rx="5" fill="#1A1A1A"/>
<path d="M27.0606 29.9652H30.8272V40.7162C30.8272 41.7134 30.5941 42.6031 30.1277 43.3851C29.6685 44.1671 29.0228 44.7734 28.1906 45.2038C27.3655 45.6343 26.4436 45.8495 25.4248 45.8495C23.7173 45.8495 22.39 45.4191 21.443 44.5581C20.496 43.6972 20.0225 42.4775 20.0225 40.8991H23.8106C23.8106 41.6166 23.9326 42.1367 24.1765 42.4596C24.4276 42.7824 24.8437 42.9439 25.4248 42.9439C25.9486 42.9439 26.3504 42.7502 26.6302 42.3627C26.9171 41.9681 27.0606 41.4193 27.0606 40.7162V29.9652Z" fill="#FEE736"/>
<path d="M42.4004 41.4695C42.4004 40.9171 42.2031 40.4866 41.8085 40.1781C41.4211 39.8696 40.7359 39.5503 39.753 39.2203C38.7701 38.8903 37.9666 38.571 37.3424 38.2625C35.312 37.2653 34.2968 35.8949 34.2968 34.1515C34.2968 33.2834 34.5479 32.5193 35.0501 31.8593C35.5595 31.1921 36.277 30.6755 37.2025 30.3096C38.128 29.9365 39.1683 29.75 40.3234 29.75C41.4498 29.75 42.4578 29.9509 43.3474 30.3527C44.2442 30.7544 44.9401 31.3284 45.4352 32.0745C45.9302 32.8135 46.1777 33.6601 46.1777 34.6143H42.4111C42.4111 33.9758 42.2138 33.4807 41.8192 33.1292C41.4318 32.7776 40.9045 32.6019 40.2373 32.6019C39.5629 32.6019 39.0284 32.7525 38.6338 33.0538C38.2464 33.348 38.0526 33.7247 38.0526 34.1838C38.0526 34.5856 38.2679 34.9515 38.6983 35.2815C39.1288 35.6044 39.8857 35.9416 40.9691 36.2931C42.0524 36.6375 42.9421 37.0106 43.638 37.4123C45.3312 38.3881 46.1777 39.7333 46.1777 41.448C46.1777 42.8183 45.6612 43.8945 44.6281 44.6765C43.5949 45.4585 42.178 45.8495 40.3772 45.8495C39.1073 45.8495 37.9558 45.6235 36.9227 45.1715C35.8967 44.7124 35.1219 44.0882 34.5981 43.299C34.0816 42.5026 33.8233 41.5879 33.8233 40.5548H37.6114C37.6114 41.3942 37.8266 42.0148 38.2571 42.4165C38.6948 42.8111 39.4014 43.0084 40.3772 43.0084C41.0014 43.0084 41.4928 42.8757 41.8515 42.6103C42.2174 42.3376 42.4004 41.9574 42.4004 41.4695Z" fill="#FEE736"/>
</svg>
