<svg width="50" height="50" viewBox="0 0 50 50" fill="none" xmlns="http://www.w3.org/2000/svg">
<path d="M22.9993 1.15512C24.2373 0.440331 25.7627 0.44033 27.0007 1.15512L44.6499 11.3449C45.888 12.0597 46.6506 13.3807 46.6506 14.8102V35.1898C46.6506 36.6193 45.888 37.9403 44.6499 38.6551L27.0007 48.8449C25.7627 49.5597 24.2373 49.5597 22.9993 48.8449L5.3501 38.6551C4.11204 37.9403 3.34937 36.6193 3.34937 35.1898V14.8102C3.34937 13.3807 4.11204 12.0597 5.3501 11.3449L22.9993 1.15512Z" stroke="url(#paint0_linear_666_83)" stroke-opacity="0.3" stroke-width="0.800293"/>
<path d="M23.6071 8.40357C24.4688 7.90608 25.5304 7.90608 26.3921 8.40357L38.6759 15.4956C39.5376 15.9931 40.0685 16.9125 40.0685 17.9075V32.0917C40.0685 33.0867 39.5376 34.0061 38.6759 34.5036L26.3921 41.5956C25.5304 42.0931 24.4688 42.0931 23.6071 41.5956L11.3233 34.5036C10.4616 34.0061 9.93077 33.0867 9.93077 32.0917V17.9075C9.93077 16.9125 10.4616 15.9931 11.3233 15.4956L23.6071 8.40357Z" fill="url(#paint1_linear_666_83)" fill-opacity="0.2"/>
<path d="M19.2891 32.3091H18.4403C18.4102 30.487 18.3276 28.774 18.1924 27.1687H18.1849L16.8925 32.3091H16.2461L14.9614 27.1687H14.954C14.8588 28.7099 14.7987 30.4233 14.7738 32.3091H14C14.0499 30.016 14.1752 27.8661 14.3755 25.8594H15.4276L16.6521 30.5986H16.6597L17.8917 25.8594H18.8984C19.1189 28.2098 19.2491 30.3599 19.2891 32.3091ZM22.9706 27.5504C22.625 29.9356 22.169 31.6687 21.6031 32.7505C21.1622 33.5832 20.6791 34 20.153 34C20.0127 34 19.8397 33.9462 19.6346 33.8394V33.2643C19.7349 33.2827 19.8525 33.293 19.9876 33.293C20.2334 33.293 20.4309 33.2071 20.5814 33.0348C20.7616 32.8249 20.8516 32.5891 20.8516 32.3281C20.8516 32.1491 20.7814 31.7832 20.6413 31.2292L19.7098 27.5503H20.5437L21.2124 30.3017C21.3626 30.9265 21.4253 31.3626 21.4002 31.6111C21.7658 30.3693 22.0212 29.0153 22.1667 27.55L22.9706 27.5504Z" fill="#F7F7F7"/>
<path d="M34.2703 32.3091H31.8589V25.8594H32.6701V31.5151H34.2703V32.3091ZM31.2277 32.465L30.2953 31.8798C30.378 31.7935 30.4571 31.7 30.5283 31.5917C30.9246 30.9997 31.1223 30.1243 31.1223 28.9646C31.1223 26.8308 30.4638 25.7634 29.1465 25.7634C28.5005 25.7634 27.9965 26.0342 27.6362 26.5759C27.2402 27.1684 27.0425 28.0407 27.0425 29.194C27.0425 30.3278 27.2177 31.1595 27.5682 31.6871C27.8889 32.1649 28.3723 32.4043 29.0188 32.4043C29.26 32.4043 29.4812 32.3667 29.6828 32.2909L30.8967 33.1896L31.2277 32.465ZM28.2073 31.0185C28.002 30.5984 27.8993 29.9237 27.8993 28.9936C27.8993 27.3696 28.2872 26.5567 29.0639 26.5567C29.4699 26.5567 29.7675 26.7512 29.9578 27.1391C30.1628 27.5599 30.266 28.2285 30.266 29.1457C30.266 30.783 29.8777 31.6018 29.1015 31.6018C28.6953 31.6019 28.3978 31.4081 28.2073 31.0185ZM26.689 30.5214C26.689 31.0684 26.5312 31.517 26.2159 31.8685C25.9004 32.2186 25.4771 32.394 24.9468 32.394C24.4508 32.394 23.9698 32.1925 23.5043 31.7916L23.7223 31.2377C24.1228 31.4929 24.4855 31.6196 24.8111 31.6196C25.1167 31.6196 25.3556 31.5335 25.5288 31.3627C25.7018 31.1912 25.805 30.9507 25.805 30.6466C25.805 30.2634 25.5949 29.9358 25.2094 29.6615C24.8539 29.4133 24.143 28.8943 24.143 28.8943C23.7577 28.5372 23.5648 28.1538 23.5648 27.5221C23.5648 26.9994 23.7086 26.5774 23.9965 26.2563C24.2847 25.9341 24.6566 25.7734 25.1125 25.7734C25.5832 25.7734 26.0112 25.9338 26.3967 26.2513L26.2011 26.8054C25.8715 26.6272 25.546 26.5382 25.2249 26.5382C24.965 26.5382 24.7642 26.6176 24.6246 26.7772C24.4839 26.9361 24.3971 27.1395 24.3971 27.389C24.3971 27.7703 24.6116 28.1021 25.0076 28.3818C25.3679 28.6304 26.0965 29.1584 26.0965 29.1584C26.4917 29.5149 26.689 29.8948 26.689 30.5214Z" fill="#F7F7F7"/>
<path d="M35.2886 23.6991C34.7981 23.6833 34.4183 23.746 34.0996 23.9175C34.0076 23.9643 33.8613 23.9643 33.8485 24.1121C33.8982 24.1747 33.9039 24.2757 33.9471 24.3621C34.0205 24.5179 34.1487 24.7275 34.2656 24.8368C34.3941 24.962 34.523 25.0859 34.6582 25.195C34.8966 25.3825 35.1667 25.4916 35.399 25.6785C35.5343 25.7872 35.6688 25.9278 35.8043 26.0449C35.8709 26.1072 35.9136 26.2084 36 26.2474V26.2236C35.9567 26.1535 35.9444 26.0521 35.9019 25.9741L35.7178 25.7484C35.5401 25.4447 35.3191 25.1796 35.0807 24.9618C34.8845 24.7899 34.4555 24.5562 34.3758 24.2688L34.3634 24.2529C34.4982 24.2368 34.6582 24.1747 34.7863 24.127C34.9948 24.057 35.1849 24.0729 35.3988 24.0031C35.4972 23.9717 35.5949 23.9325 35.6936 23.894V23.8237C35.5827 23.6833 35.5036 23.4968 35.387 23.3641C35.075 23.0214 34.7311 22.6861 34.3758 22.4056C34.1856 22.2494 33.9409 22.1487 33.7383 22.0159C33.6653 21.9689 33.5423 21.9458 33.4993 21.8678C33.3894 21.6963 33.3275 21.4706 33.2478 21.2677C33.0706 20.8394 32.8985 20.3642 32.7457 19.9113C32.6351 19.6076 32.5679 19.3043 32.433 19.0233C31.8015 17.6987 31.1157 16.8964 30.0616 16.1089C29.8351 15.945 29.5656 15.8751 29.2776 15.7891L28.8178 15.7583C28.7198 15.7036 28.6215 15.5553 28.5359 15.4852C28.1862 15.2048 27.2857 14.5972 27.0285 15.3995C26.8628 15.9065 27.2736 16.4051 27.4147 16.6623C27.5189 16.8409 27.6538 17.044 27.7267 17.2468C27.7698 17.3793 27.782 17.5199 27.8251 17.6599C27.9232 18.0029 28.0149 18.3843 28.1438 18.7044C28.2111 18.8674 28.2844 19.039 28.3703 19.1866C28.4196 19.273 28.5052 19.3112 28.5239 19.452C28.4385 19.6071 28.4317 19.8414 28.3826 20.0363C28.1622 20.9168 28.2483 22.0075 28.5608 22.6547C28.6586 22.8495 28.8918 23.2784 29.2039 23.1139C29.4801 22.9738 29.4189 22.5297 29.4982 22.1402C29.5165 22.0461 29.5045 21.9844 29.5413 21.9226V21.9378C29.6267 22.1559 29.713 22.3659 29.7922 22.5845C29.9823 22.9661 30.3133 23.3637 30.5891 23.628C30.736 23.769 30.8522 24.0101 31.0361 24.0962V24.0729H31.0239C30.9868 24.0031 30.9323 23.9717 30.8834 23.9175C30.7728 23.7771 30.6505 23.6056 30.5647 23.4501C30.3078 23.0134 30.0804 22.5301 29.8786 22.0314C29.7799 21.7894 29.6948 21.5249 29.6153 21.2833C29.5781 21.19 29.5781 21.0494 29.5167 21.0025C29.4245 21.1738 29.2901 21.3221 29.2228 21.5319C29.1062 21.8675 29.0941 22.2804 29.0508 22.7097L29.0267 22.7247C28.8314 22.6623 28.7636 22.4056 28.6894 22.1876C28.5058 21.6339 28.475 20.7453 28.6343 20.1066C28.677 19.9432 28.8615 19.4288 28.7878 19.2732C28.7509 19.124 28.6282 19.0391 28.561 18.9217C28.4819 18.774 28.3953 18.5871 28.3402 18.4232C28.1932 17.987 28.1192 17.5037 27.9609 17.0676C27.887 16.8645 27.7585 16.6542 27.6545 16.467C27.5377 16.2568 27.4093 16.1087 27.3169 15.8594C27.2864 15.7737 27.2436 15.6336 27.2927 15.5403C27.3046 15.4777 27.3295 15.4543 27.3784 15.4387C27.4578 15.3534 27.6847 15.4619 27.7642 15.5088C27.9915 15.6256 28.1814 15.7347 28.371 15.8983C28.4568 15.9764 28.5488 16.1245 28.6589 16.1636H28.7878C28.9835 16.2178 29.2041 16.1786 29.3884 16.2491C29.713 16.3818 30.0071 16.5764 30.2709 16.7864C31.0735 17.4337 31.7354 18.3535 32.1822 19.452C32.2555 19.631 32.2867 19.7949 32.3536 19.9816C32.4828 20.3638 32.6423 20.7535 32.7705 21.1275C32.8992 21.4936 33.022 21.8674 33.2058 22.1715C33.2975 22.335 33.6659 22.4208 33.8311 22.5065C33.9533 22.5764 34.1436 22.6386 34.2538 22.7243C34.4623 22.8877 34.67 23.0752 34.866 23.2548C34.9636 23.3482 35.2704 23.5431 35.2886 23.6991ZM29.0378 16.927C28.9532 16.9259 28.8689 16.9391 28.787 16.9663V16.9819H28.7989C28.8482 17.1065 28.934 17.1928 28.9952 17.3015C29.0446 17.4265 29.0874 17.5504 29.1357 17.6751L29.1476 17.6596C29.234 17.5818 29.277 17.4571 29.277 17.27C29.2397 17.215 29.234 17.1611 29.203 17.1065C29.1669 17.0284 29.0874 16.9896 29.0378 16.927Z" fill="#F7F7F7"/>
<path d="M35.8722 32.3081H35.9992V31.5179H35.8087L35.6534 32.0572L35.4846 31.5179H35.3012V32.3081H35.4211V31.7069H35.4279L35.6047 32.3081H35.6961L35.8722 31.7069V32.3081ZM34.8495 32.3081H34.9838V31.6518H35.1597V31.5177H34.6663V31.6518H34.8491L34.8495 32.3081Z" fill="#F7F7F7"/>
<defs>
<linearGradient id="paint0_linear_666_83" x1="0" y1="0" x2="50" y2="50" gradientUnits="userSpaceOnUse">
<stop stop-color="white"/>
<stop offset="0.765625" stop-color="white" stop-opacity="0"/>
</linearGradient>
<linearGradient id="paint1_linear_666_83" x1="7.59961" y1="7.59961" x2="42.3996" y2="42.3996" gradientUnits="userSpaceOnUse">
<stop stop-color="white"/>
<stop offset="0.828125" stop-color="white" stop-opacity="0"/>
</linearGradient>
</defs>
</svg>
