<svg width="50" height="54" viewBox="0 0 50 54" fill="none" xmlns="http://www.w3.org/2000/svg">
<rect width="50" height="54" rx="5" fill="#1A1A1A"/>
<path d="M15.3028 40.1605H13.8614C13.8104 37.0897 13.67 34.2028 13.4405 31.4975H13.4277L11.2331 40.1605H10.1356L7.95404 31.4975H7.94155C7.77975 34.0948 7.67771 36.9825 7.63545 40.1605H6.32153C6.40621 36.2959 6.61901 32.6728 6.95912 29.2909H8.74566L10.8249 37.2778H10.8378L12.9299 29.2909H14.6393C15.0137 33.2521 15.2348 36.8756 15.3028 40.1605ZM21.5541 32.1408C20.9673 36.1606 20.1929 39.0813 19.2319 40.9044C18.4833 42.3078 17.6629 43.0102 16.7696 43.0102C16.5315 43.0102 16.2376 42.9195 15.8894 42.7394V41.7702C16.0596 41.8013 16.2594 41.8187 16.4889 41.8187C16.9061 41.8187 17.2415 41.6739 17.4972 41.3835C17.803 41.0298 17.956 40.6324 17.956 40.1925C17.956 39.8908 17.8368 39.2743 17.5988 38.3406L16.017 32.1405H17.4331L18.5685 36.7775C18.8236 37.8304 18.93 38.5654 18.8874 38.9842C19.5083 36.8913 19.942 34.6095 20.189 32.1401L21.5541 32.1408Z" fill="white"/>
<path d="M40.7415 40.1605H36.6469V29.2909H38.0243V38.8225H40.7415V40.1605ZM35.5751 40.4232L33.9919 39.437C34.1323 39.2916 34.2666 39.1339 34.3874 38.9516C35.0604 37.9538 35.396 36.4784 35.396 34.524C35.396 30.928 34.2779 29.1292 32.041 29.1292C30.9441 29.1292 30.0884 29.5855 29.4764 30.4985C28.804 31.4969 28.4684 32.9671 28.4684 34.9107C28.4684 36.8215 28.7658 38.2231 29.3611 39.1123C29.9057 39.9176 30.7265 40.3209 31.8242 40.3209C32.2337 40.3209 32.6094 40.2576 32.9518 40.1299L35.013 41.6445L35.5751 40.4232ZM30.4463 37.9854C30.0976 37.2775 29.9232 36.1405 29.9232 34.5729C29.9232 31.8361 30.582 30.4662 31.9008 30.4662C32.5903 30.4662 33.0955 30.7938 33.4187 31.4476C33.7668 32.1567 33.942 33.2835 33.942 34.8292C33.942 37.5885 33.2827 38.9685 31.9647 38.9685C31.2749 38.9687 30.7697 38.6421 30.4463 37.9854ZM27.8681 37.1477C27.8681 38.0696 27.6002 38.8257 27.0648 39.4181C26.529 40.008 25.8103 40.3036 24.9098 40.3036C24.0675 40.3036 23.2507 39.964 22.4603 39.2884L22.8305 38.355C23.5106 38.7849 24.1264 38.9986 24.6794 38.9986C25.1983 38.9986 25.6039 38.8535 25.898 38.5656C26.1918 38.2765 26.367 37.8712 26.367 37.3587C26.367 36.7129 26.0103 36.1608 25.3557 35.6986C24.752 35.2803 23.5449 34.4055 23.5449 34.4055C22.8906 33.8037 22.563 33.1576 22.563 32.0931C22.563 31.2121 22.8072 30.5009 23.2962 29.9598C23.7855 29.4168 24.417 29.146 25.1911 29.146C25.9904 29.146 26.7171 29.4163 27.3717 29.9514L27.0397 30.8852C26.4799 30.5849 25.9273 30.4349 25.3821 30.4349C24.9407 30.4349 24.5997 30.5688 24.3627 30.8377C24.1237 31.1055 23.9763 31.4483 23.9763 31.8688C23.9763 32.5114 24.3406 33.0704 25.0131 33.5419C25.6248 33.9609 26.862 34.8506 26.862 34.8506C27.533 35.4514 27.8681 36.0917 27.8681 37.1477Z" fill="white"/>
<path d="M42.4706 25.6503C41.6378 25.6235 40.9929 25.7293 40.4517 26.0182C40.2955 26.0971 40.0471 26.0971 40.0254 26.3463C40.1097 26.4518 40.1195 26.622 40.1928 26.7675C40.3175 27.0301 40.5351 27.3833 40.7337 27.5676C40.9517 27.7785 41.1707 27.9873 41.4003 28.1712C41.805 28.4873 42.2637 28.6711 42.6581 28.9861C42.8879 29.1693 43.1163 29.4063 43.3464 29.6035C43.4594 29.7086 43.5319 29.879 43.6787 29.9448V29.9048C43.6051 29.7866 43.5842 29.6157 43.5121 29.4843L43.1996 29.1038C42.8977 28.5921 42.5225 28.1453 42.1177 27.7782C41.7846 27.4885 41.056 27.0947 40.9208 26.6103L40.8997 26.5835C41.1286 26.5565 41.4003 26.4518 41.6177 26.3713C41.9718 26.2534 42.2946 26.2802 42.6578 26.1625C42.825 26.1096 42.9907 26.0436 43.1584 25.9786V25.8602C42.9701 25.6235 42.8358 25.3093 42.6378 25.0856C42.1079 24.508 41.5241 23.943 40.9208 23.4703C40.5978 23.207 40.1822 23.0374 39.8381 22.8136C39.7142 22.7344 39.5053 22.6954 39.4323 22.564C39.2457 22.2749 39.1407 21.8946 39.0053 21.5525C38.7045 20.8308 38.4123 20.03 38.1527 19.2667C37.9649 18.7548 37.8507 18.2437 37.6218 17.7702C36.5494 15.5378 35.3848 14.1857 33.5949 12.8586C33.2103 12.5823 32.7527 12.4646 32.2637 12.3196L31.483 12.2676C31.3165 12.1755 31.1496 11.9256 31.0042 11.8074C30.4104 11.335 28.8814 10.3109 28.4447 11.663C28.1633 12.5175 28.8609 13.3578 29.1004 13.7912C29.2773 14.0922 29.5064 14.4345 29.6302 14.7763C29.7034 14.9996 29.724 15.2365 29.7972 15.4724C29.9638 16.0504 30.1196 16.6933 30.3384 17.2327C30.4527 17.5075 30.5772 17.7965 30.7231 18.0454C30.8067 18.191 30.9522 18.2553 30.9839 18.4926C30.8388 18.7541 30.8274 19.149 30.744 19.4773C30.3697 20.9612 30.5159 22.7994 31.0466 23.89C31.2126 24.2184 31.6086 24.9412 32.1385 24.6641C32.6075 24.4278 32.5036 23.6794 32.6384 23.023C32.6693 22.8645 32.649 22.7604 32.7114 22.6564V22.682C32.8566 23.0495 33.0031 23.4035 33.1376 23.7719C33.4603 24.4149 34.0224 25.085 34.4907 25.5304C34.7401 25.768 34.9375 26.1744 35.2497 26.3195V26.2802H35.2291C35.1659 26.1625 35.0735 26.1096 34.9905 26.0182C34.8026 25.7817 34.5949 25.4927 34.4493 25.2305C34.013 24.4946 33.6269 23.6802 33.2843 22.8396C33.1167 22.4318 32.9721 21.986 32.8371 21.5789C32.774 21.4217 32.774 21.1847 32.6697 21.1057C32.5131 21.3943 32.285 21.6442 32.1707 21.9979C31.9727 22.5635 31.952 23.2592 31.8785 23.9827L31.8376 24.0081C31.5061 23.903 31.3909 23.4703 31.2649 23.1029C30.9532 22.1698 30.9009 20.6723 31.1713 19.5958C31.2438 19.3204 31.5571 18.4535 31.4321 18.1913C31.3694 17.9399 31.161 17.7968 31.0468 17.5989C30.9126 17.35 30.7655 17.035 30.6719 16.7588C30.4224 16.0236 30.2967 15.2091 30.0279 14.4743C29.9023 14.132 29.6842 13.7775 29.5076 13.4621C29.3093 13.1079 29.0912 12.8583 28.9344 12.4381C28.8826 12.2937 28.8098 12.0575 28.8932 11.9003C28.9135 11.7947 28.9558 11.7555 29.0388 11.7291C29.1736 11.5853 29.5589 11.7681 29.6939 11.8471C30.0798 12.0441 30.4023 12.2279 30.7243 12.5036C30.87 12.6353 31.0262 12.8849 31.2131 12.9507H31.4321C31.7643 13.0421 32.1389 12.976 32.4518 13.0948C33.0031 13.3185 33.5025 13.6464 33.9503 14.0004C35.3133 15.0913 36.4371 16.6413 37.1959 18.4926C37.3204 18.7943 37.3734 19.0705 37.487 19.3852C37.7062 20.0292 37.9772 20.686 38.1948 21.3163C38.4134 21.9333 38.6218 22.5632 38.934 23.0758C39.0897 23.3514 39.7153 23.4959 39.9959 23.6404C40.2033 23.7582 40.5264 23.863 40.7136 24.0073C41.0677 24.2827 41.4203 24.5987 41.7532 24.9014C41.9188 25.0589 42.4397 25.3873 42.4706 25.6503ZM31.8565 14.2373C31.7128 14.2354 31.5697 14.2577 31.4307 14.3036V14.3299H31.4508C31.5346 14.5398 31.6803 14.6853 31.7842 14.8684C31.868 15.079 31.9407 15.2879 32.0228 15.4981L32.0429 15.472C32.1897 15.3409 32.2627 15.1307 32.2627 14.8153C32.1994 14.7226 32.1897 14.6318 32.1371 14.5398C32.0758 14.4082 31.9407 14.3428 31.8565 14.2373Z" fill="white"/>
<path d="M43.4617 40.1587H43.6773V38.8271H43.3539L43.0901 39.7359L42.8035 38.8271H42.4921V40.1587H42.6957V39.1456H42.7072L43.0074 40.1587H43.1626L43.4617 39.1456V40.1587ZM41.725 40.1587H41.9531V39.0527H42.2518V38.8267H41.4139V39.0527H41.7244L41.725 40.1587Z" fill="white"/>
</svg>
