<svg width="50" height="54" viewBox="0 0 50 54" fill="none" xmlns="http://www.w3.org/2000/svg">
<rect width="50" height="54" rx="5" fill="#1A1A1A"/>
<path d="M23.4234 9.87324C23.9058 9.6285 24.4491 9.5 25.0018 9.5C25.5545 9.5 26.0978 9.6285 26.5802 9.87324C31.3866 12.3378 36.1934 14.8019 41.0005 17.2657C41.4526 17.4993 41.8291 17.8367 42.0923 18.244C42.3554 18.6512 42.496 19.1141 42.5 19.5863V34.4197C42.4907 34.9092 42.336 35.3874 42.0525 35.8039C41.769 36.2204 41.367 36.5599 40.8888 36.7865C36.0978 39.2379 31.3081 41.6902 26.5195 44.1438C26.028 44.3905 25.4728 44.5131 24.9114 44.4989C24.3501 44.4848 23.8031 44.3344 23.3275 44.0633C21.8916 43.3074 20.4545 42.5534 19.0161 41.8012C18.7004 41.6714 18.4174 41.4842 18.1844 41.2513C18.3678 41.031 18.6956 40.999 18.9615 40.9009C19.5515 40.7093 20.1206 40.468 20.6613 40.1803C20.7294 40.1438 20.8079 40.1267 20.887 40.1309C20.9659 40.1352 21.0417 40.1609 21.1044 40.2046C22.3331 40.8436 23.5497 41.5015 24.7821 42.1339C25.0455 42.2717 25.3114 42.0888 25.536 41.9753C30.2372 39.5636 34.9399 37.1549 39.6443 34.7492C39.7282 34.7112 39.7976 34.6511 39.8432 34.5768C39.889 34.5025 39.9089 34.4174 39.9005 34.3327C39.9005 29.4411 39.9005 24.5488 39.9005 19.6557C39.909 19.5605 39.8846 19.4653 39.8307 19.3833C39.7767 19.3013 39.6958 19.2366 39.5994 19.1984C34.8238 16.7581 30.0506 14.3168 25.2799 11.8743C25.1971 11.8228 25.0991 11.7954 24.9988 11.7954C24.8985 11.7954 24.8005 11.8228 24.7177 11.8743C19.9421 14.316 15.1694 16.7585 10.3994 19.2017C10.3026 19.239 10.2213 19.3031 10.167 19.3847C10.1126 19.4665 10.0882 19.5617 10.097 19.6568C10.097 24.5483 10.097 29.4407 10.097 34.3338C10.0888 34.4183 10.1092 34.5031 10.1557 34.5768C10.2022 34.6504 10.2724 34.7095 10.3569 34.7459C11.6309 35.4012 12.9053 36.0546 14.1802 36.7061C14.5338 36.9044 14.9294 37.0328 15.3413 37.0829C15.7532 37.1331 16.1722 37.1038 16.5708 36.997C16.9163 36.8788 17.2137 36.6679 17.4235 36.3922C17.6333 36.1165 17.7454 35.7893 17.7449 35.4544C17.751 30.5907 17.7449 25.727 17.7449 20.8645C17.7435 20.8129 17.7541 20.7615 17.776 20.7139C17.798 20.6663 17.8309 20.6235 17.8724 20.5882C17.9138 20.553 17.9631 20.526 18.0169 20.5092C18.0707 20.4925 18.1277 20.4862 18.1844 20.4909C18.7915 20.4909 19.4095 20.4832 20.0214 20.4909C20.0807 20.4934 20.1386 20.5071 20.1915 20.5312C20.2446 20.5553 20.2913 20.5892 20.329 20.6307C20.3666 20.6723 20.3943 20.7205 20.4101 20.7723C20.426 20.8242 20.4296 20.8784 20.4209 20.9317C20.4209 25.8262 20.4269 30.7207 20.4209 35.6141C20.4615 36.279 20.305 36.9416 19.9676 37.5328C19.6302 38.1241 19.1243 38.6225 18.5025 38.976C17.6716 39.3275 16.7618 39.4986 15.8454 39.4758C14.9288 39.453 14.0309 39.237 13.2222 38.8448C11.8211 38.2102 10.4844 37.462 9.10874 36.7821C8.63121 36.556 8.22982 36.2173 7.94668 35.8016C7.66355 35.3857 7.50923 34.9084 7.5 34.4197V19.5863C7.50413 19.1042 7.65043 18.6321 7.92373 18.2187C8.19704 17.8054 8.58738 17.466 9.0541 17.236C13.8459 14.7832 18.6357 12.329 23.4234 9.87324Z" fill="#8CC84B"/>
<path d="M27.6012 20.146C29.7178 19.8973 31.8688 20.1961 33.8067 21.0077C34.5089 21.3878 35.0895 21.9279 35.4909 22.5745C35.8924 23.2209 36.1008 23.9514 36.0953 24.6935C36.068 24.7862 36.0048 24.867 35.9171 24.9209C35.8294 24.9747 35.7233 24.998 35.6182 24.9866C35.0111 24.9866 34.404 24.9943 33.797 24.9866C33.6805 24.9797 33.571 24.9337 33.4899 24.8575C33.4088 24.7813 33.3621 24.6804 33.3587 24.5745C33.2899 24.215 33.136 23.8736 32.9072 23.5737C32.6785 23.2738 32.3804 23.0227 32.034 22.8379C30.8812 22.4224 29.6362 22.2609 28.4013 22.3663C27.4913 22.3404 26.5912 22.5437 25.8006 22.9536C25.5284 23.1451 25.3292 23.4093 25.231 23.7089C25.1327 24.0085 25.1405 24.3286 25.2531 24.6241C25.4473 25.0439 25.9815 25.175 26.4186 25.3039C28.9368 25.9011 31.6042 25.8416 34.0738 26.6262C34.6041 26.7597 35.0937 27.0018 35.5049 27.3338C35.9161 27.6657 36.2381 28.0788 36.4462 28.5412C36.6939 29.1974 36.7538 29.8998 36.6201 30.5827C36.4865 31.2656 36.1639 31.9065 35.6825 32.4452C34.8117 33.2654 33.6806 33.8185 32.4468 34.0275C30.8398 34.3236 29.1912 34.3872 27.5624 34.2159C25.999 34.135 24.5001 33.6234 23.2655 32.7493C22.7757 32.3419 22.3911 31.8414 22.1392 31.2835C21.8873 30.7256 21.7744 30.1239 21.8086 29.5219C21.8196 29.4245 21.8727 29.3351 21.9562 29.2731C22.0397 29.2112 22.1468 29.1817 22.2541 29.1913C22.8612 29.1913 23.4743 29.1858 24.0851 29.1913C24.1416 29.1901 24.1979 29.1991 24.2504 29.2179C24.3031 29.2365 24.3512 29.2645 24.3919 29.3002C24.4325 29.3359 24.465 29.3785 24.4873 29.4256C24.5096 29.4727 24.5215 29.5234 24.5222 29.5748C24.5526 29.9169 24.66 30.2499 24.8373 30.553C25.0149 30.8563 25.2588 31.1232 25.5542 31.3378C26.8613 31.9214 28.322 32.1626 29.7721 32.0342C30.9857 32.1169 32.1968 31.8467 33.23 31.2628C33.4674 31.0522 33.6403 30.7888 33.7314 30.499C33.8226 30.2091 33.8288 29.9027 33.7496 29.61C33.6015 29.1208 33.0369 28.8927 32.5525 28.744C30.0671 28.0299 27.3693 28.2889 24.9034 27.4823C24.387 27.3452 23.9096 27.1081 23.5041 26.7874C23.0985 26.4667 22.7743 26.0699 22.554 25.6246C22.2711 24.9597 22.1997 24.236 22.3479 23.5361C22.496 22.8362 22.8577 22.188 23.3918 21.6655C24.5554 20.7333 26.037 20.1929 27.5879 20.135L27.6012 20.146Z" fill="#8CC84B"/>
</svg>
