<svg width="50" height="54" viewBox="0 0 50 54" fill="none" xmlns="http://www.w3.org/2000/svg">
<rect width="50" height="54" rx="5" fill="#1A1A1A"/>
<path d="M23.6487 12.3199C24.0621 12.1101 24.5278 12 25.0016 12C25.4753 12 25.941 12.1101 26.3545 12.3199C30.4742 14.4324 34.5943 16.5445 38.7147 18.6563C39.1022 18.8566 39.4249 19.1458 39.6505 19.4948C39.8761 19.8439 39.9966 20.2407 40 20.6454V33.3598C39.992 33.7793 39.8594 34.1892 39.6164 34.5462C39.3734 34.9032 39.0288 35.1942 38.619 35.3885C34.5124 37.4896 30.4069 39.5916 26.3024 41.6946C25.8812 41.9061 25.4052 42.0112 24.924 41.999C24.4429 41.987 23.9741 41.858 23.5664 41.6257C22.3356 40.9778 21.1039 40.3315 19.871 39.6867C19.6004 39.5755 19.3578 39.415 19.1581 39.2154C19.3152 39.0265 19.5962 38.9991 19.8241 38.9151C20.3299 38.7508 20.8177 38.544 21.2811 38.2974C21.3395 38.2661 21.4068 38.2514 21.4746 38.2551C21.5422 38.2588 21.6071 38.2808 21.6609 38.3182C22.7141 38.866 23.7569 39.4298 24.8132 39.9719C25.039 40.09 25.2669 39.9332 25.4595 39.8359C29.489 37.7688 33.5199 35.7042 37.5523 33.6422C37.6242 33.6096 37.6836 33.5581 37.7228 33.4944C37.762 33.4307 37.7791 33.3578 37.7719 33.2851C37.7719 29.0924 37.7719 24.899 37.7719 20.7049C37.7792 20.6233 37.7582 20.5417 37.712 20.4714C37.6657 20.4011 37.5964 20.3457 37.5138 20.3129C33.4204 18.2212 29.3291 16.1287 25.2399 14.0351C25.1689 13.991 25.0849 13.9675 24.999 13.9675C24.913 13.9675 24.829 13.991 24.758 14.0351C20.6647 16.128 16.5737 18.2216 12.4852 20.3158C12.4022 20.3477 12.3325 20.4027 12.286 20.4726C12.2394 20.5427 12.2184 20.6243 12.226 20.7058C12.226 24.8986 12.226 29.092 12.226 33.2861C12.219 33.3585 12.2364 33.4312 12.2763 33.4944C12.3162 33.5575 12.3763 33.6081 12.4487 33.6393C13.5407 34.201 14.6332 34.7611 15.7259 35.3195C16.0289 35.4895 16.3681 35.5995 16.7211 35.6425C17.0742 35.6855 17.4333 35.6604 17.775 35.5689C18.0711 35.4675 18.326 35.2867 18.5059 35.0504C18.6857 34.8141 18.7818 34.5337 18.7814 34.2466C18.7866 30.0777 18.7814 25.9089 18.7814 21.741C18.7801 21.6968 18.7893 21.6527 18.808 21.6119C18.8268 21.5711 18.855 21.5344 18.8906 21.5042C18.9261 21.474 18.9684 21.4508 19.0145 21.4365C19.0606 21.4221 19.1095 21.4167 19.1581 21.4208C19.6784 21.4208 20.2081 21.4142 20.7326 21.4208C20.7834 21.423 20.8331 21.4347 20.8784 21.4554C20.9239 21.4759 20.964 21.505 20.9963 21.5406C21.0285 21.5762 21.0522 21.6176 21.0658 21.662C21.0794 21.7065 21.0825 21.753 21.075 21.7986C21.075 25.9939 21.0802 30.1892 21.075 34.3836C21.1099 34.9534 20.9758 35.5213 20.6865 36.0281C20.3973 36.5349 19.9637 36.9621 19.4307 37.2651C18.7185 37.5664 17.9387 37.7131 17.1532 37.6935C16.3676 37.674 15.5979 37.4889 14.9048 37.1527C13.7038 36.6087 12.558 35.9674 11.3789 35.3847C10.9696 35.1909 10.6256 34.9006 10.3829 34.5442C10.1402 34.1878 10.0079 33.7786 10 33.3598V20.6454C10.0035 20.2322 10.1289 19.8275 10.3632 19.4732C10.5975 19.1189 10.932 18.828 11.3321 18.6308C15.4394 16.5285 19.5449 14.4249 23.6487 12.3199Z" fill="#8CC84B"/>
<path d="M27.2296 21.1252C29.0438 20.912 30.8875 21.1681 32.5486 21.8637C33.1505 22.1896 33.6482 22.6525 33.9922 23.2067C34.3364 23.7608 34.515 24.3869 34.5103 25.023C34.4869 25.1025 34.4326 25.1717 34.3575 25.2179C34.2824 25.264 34.1914 25.284 34.1013 25.2742C33.5809 25.2742 33.0606 25.2808 32.5403 25.2742C32.4404 25.2683 32.3466 25.2289 32.2771 25.1636C32.2075 25.0983 32.1675 25.0117 32.1646 24.921C32.1057 24.6129 31.9737 24.3202 31.7776 24.0632C31.5816 23.8061 31.3261 23.5909 31.0292 23.4325C30.041 23.0763 28.9739 22.9379 27.9154 23.0283C27.1354 23.0061 26.3639 23.1803 25.6863 23.5317C25.4529 23.6958 25.2822 23.9223 25.198 24.1791C25.1138 24.4359 25.1204 24.7103 25.2169 24.9635C25.3834 25.3233 25.8413 25.4357 26.216 25.5462C28.3744 26.0581 30.6608 26.0071 32.7775 26.6796C33.2321 26.794 33.6517 27.0015 34.0042 27.2861C34.3567 27.5706 34.6327 27.9247 34.811 28.321C35.0233 28.8835 35.0746 29.4856 34.9601 30.0709C34.8456 30.6562 34.5691 31.2055 34.1564 31.6673C33.4101 32.3703 32.4406 32.8445 31.383 33.0235C30.0055 33.2774 28.5925 33.3319 27.1963 33.185C25.8563 33.1157 24.5715 32.6772 23.5133 31.928C23.0935 31.5788 22.7638 31.1498 22.5478 30.6715C22.332 30.1934 22.2352 29.6777 22.2645 29.1616C22.2739 29.0781 22.3194 29.0015 22.391 28.9484C22.4626 28.8953 22.5544 28.8701 22.6464 28.8783C23.1668 28.8783 23.6923 28.8736 24.2158 28.8783C24.2643 28.8772 24.3124 28.885 24.3575 28.901C24.4027 28.917 24.4439 28.941 24.4787 28.9716C24.5136 29.0022 24.5414 29.0387 24.5605 29.0791C24.5797 29.1195 24.5899 29.1629 24.5904 29.207C24.6165 29.5002 24.7085 29.7856 24.8606 30.0454C25.0127 30.3054 25.2218 30.5342 25.475 30.7181C26.5954 31.2184 27.8475 31.4251 29.0904 31.315C30.1306 31.3859 31.1687 31.1543 32.0543 30.6539C32.2578 30.4733 32.406 30.2476 32.4841 29.9992C32.5622 29.7507 32.5675 29.488 32.4997 29.2372C32.3727 28.8178 31.8888 28.6223 31.4735 28.4948C29.3433 27.8828 27.0308 28.1048 24.9172 27.4134C24.4746 27.2959 24.0654 27.0927 23.7178 26.8177C23.3701 26.5429 23.0922 26.2028 22.9035 25.821C22.661 25.2512 22.5998 24.6308 22.7267 24.0309C22.8537 23.431 23.1637 22.8755 23.6215 22.4276C24.6189 21.6286 25.8889 21.1653 27.2182 21.1157L27.2296 21.1252Z" fill="#8CC84B"/>
</svg>
