<svg width="50" height="51" viewBox="0 0 50 51" fill="none" xmlns="http://www.w3.org/2000/svg">
<path d="M22.9993 1.25571C24.2373 0.540917 25.7627 0.540916 27.0007 1.25571L44.6499 11.4455C45.888 12.1603 46.6506 13.4812 46.6506 14.9108V35.2903C46.6506 36.7199 45.888 38.0409 44.6499 38.7557L27.0007 48.9455C25.7627 49.6603 24.2373 49.6603 22.9993 48.9455L5.3501 38.7557C4.11204 38.0409 3.34937 36.7199 3.34937 35.2903V14.9108C3.34937 13.4812 4.11204 12.1603 5.3501 11.4455L22.9993 1.25571Z" stroke="url(#paint0_linear_663_118)" stroke-opacity="0.3" stroke-width="0.800293"/>
<path d="M23.6076 8.50416C24.4693 8.00666 25.5309 8.00667 26.3926 8.50416L38.6764 15.5962C39.5381 16.0937 40.0689 17.0131 40.0689 18.0081V32.1923C40.0689 33.1873 39.5381 34.1067 38.6764 34.6042L26.3926 41.6962C25.5309 42.1937 24.4693 42.1937 23.6076 41.6962L11.3238 34.6042C10.4621 34.1067 9.93126 33.1873 9.93126 32.1923V18.0081C9.93126 17.0131 10.4621 16.0937 11.3238 15.5962L23.6076 8.50416Z" fill="url(#paint1_linear_663_118)" fill-opacity="0.2"/>
<path d="M24.9998 34.3754C24.7496 34.3755 24.5037 34.3097 24.287 34.1846L22.0186 32.8417C21.6801 32.6523 21.845 32.5854 21.957 32.5463C22.317 32.435 22.6618 32.2792 22.9832 32.0825C23.0101 32.0701 23.0397 32.0647 23.0693 32.0669C23.0989 32.0691 23.1274 32.0788 23.1521 32.0951L24.8952 33.1306C24.9276 33.1478 24.9638 33.1567 25.0005 33.1567C25.0372 33.1567 25.0734 33.1478 25.1058 33.1306L31.9031 29.2073C31.9349 29.1882 31.9612 29.1612 31.9794 29.1289C31.9977 29.0966 32.0072 29.0602 32.0071 29.0231V21.1751C32.0071 21.1374 31.9974 21.1004 31.979 21.0676C31.9605 21.0347 31.934 21.0072 31.9018 20.9876L25.1045 17.0676C25.0725 17.0496 25.0363 17.0401 24.9995 17.0401C24.9627 17.0401 24.9266 17.0496 24.8945 17.0676L18.1012 20.989C18.0688 21.0081 18.0419 21.0353 18.0231 21.0679C18.0043 21.1006 17.9943 21.1375 17.9939 21.1751V29.0198C17.994 29.0568 18.0039 29.0931 18.0227 29.125C18.0414 29.1569 18.0683 29.1832 18.1006 29.2013L19.9648 30.2772C20.9752 30.782 21.5939 30.1871 21.5939 29.5895V21.8442C21.5939 21.7915 21.6149 21.741 21.6521 21.7037C21.6894 21.6664 21.74 21.6455 21.7927 21.6455H22.6539C22.7066 21.6455 22.7572 21.6664 22.7945 21.7037C22.8317 21.741 22.8527 21.7915 22.8527 21.8442V29.5902C22.8527 30.9384 22.1186 31.7102 20.84 31.7102C20.2884 31.7198 19.7454 31.5723 19.2745 31.2849L17.4878 30.26C17.2708 30.1337 17.0909 29.9527 16.9658 29.735C16.8407 29.5174 16.7749 29.2708 16.7749 29.0198V21.1751C16.7743 20.9237 16.8398 20.6766 16.9649 20.4585C17.0901 20.2405 17.2704 20.0592 17.4878 19.9329L24.2857 16.0083C24.5046 15.8885 24.7502 15.8257 24.9998 15.8257C25.2494 15.8257 25.495 15.8885 25.714 16.0083L32.5113 19.9329C32.7282 20.059 32.9082 20.2397 33.0334 20.4571C33.1586 20.6745 33.2246 20.9209 33.2248 21.1718V29.0198C33.2244 29.2708 33.1584 29.5173 33.0332 29.7349C32.908 29.9525 32.7281 30.1335 32.5113 30.26L25.714 34.1846C25.4969 34.3099 25.2505 34.3757 24.9998 34.3754V34.3754Z" fill="#83CD29"/>
<path d="M23.7107 26.3939C23.7107 26.3411 23.7316 26.2906 23.7689 26.2533C23.8062 26.216 23.8567 26.1951 23.9094 26.1951H24.7886C24.8356 26.1953 24.881 26.212 24.9167 26.2425C24.9525 26.2729 24.9763 26.315 24.984 26.3614C25.1165 27.2564 25.514 27.7076 27.3114 27.7076C28.743 27.7076 29.3532 27.3836 29.3532 26.6237C29.3532 26.1858 29.1803 25.8605 26.955 25.6426C25.0947 25.4584 23.9446 25.0463 23.9446 23.5597C23.9446 22.1883 25.1006 21.3701 27.0384 21.3701C29.2161 21.3701 30.294 22.126 30.4304 23.7478C30.4325 23.7749 30.429 23.8021 30.4202 23.8278C30.4113 23.8535 30.3973 23.8771 30.379 23.8971C30.3607 23.9172 30.3385 23.9333 30.3137 23.9444C30.2889 23.9555 30.2621 23.9614 30.235 23.9618H29.3499C29.3055 23.9612 29.2626 23.9457 29.228 23.9179C29.1934 23.89 29.1692 23.8514 29.1591 23.8081C28.9478 22.8667 28.4303 22.5659 27.0391 22.5659C25.4756 22.5659 25.2941 23.1105 25.2941 23.5186C25.2941 24.0128 25.5087 24.1573 27.6194 24.4362C29.7083 24.7124 30.7007 25.1033 30.7007 26.5714C30.7007 28.0528 29.4658 28.9008 27.312 28.9008C24.3341 28.9047 23.7107 27.5393 23.7107 26.3939V26.3939Z" fill="#83CD29"/>
<defs>
<linearGradient id="paint0_linear_663_118" x1="0" y1="0.100586" x2="50" y2="50.1006" gradientUnits="userSpaceOnUse">
<stop stop-color="white"/>
<stop offset="0.765625" stop-color="white" stop-opacity="0"/>
</linearGradient>
<linearGradient id="paint1_linear_663_118" x1="7.6001" y1="7.7002" x2="42.4001" y2="42.5002" gradientUnits="userSpaceOnUse">
<stop stop-color="white"/>
<stop offset="0.828125" stop-color="white" stop-opacity="0"/>
</linearGradient>
</defs>
</svg>
