<svg width="50" height="54" viewBox="0 0 50 54" fill="none" xmlns="http://www.w3.org/2000/svg">
<rect width="50" height="54" rx="5" fill="#1A1A1A"/>
<path d="M40.909 9.09082L31.2631 12.5052L29.9903 11.2533L24.9664 10.5135L19.9425 11.2533L18.7368 12.5052L9.09082 9.09082L12.3061 15.8059L9.09082 23.3176L11.6363 29.7481L14.1817 35.4388L16.7272 38.2842L20.9473 43.292L25.1674 45.4545L29.3875 43.292L33.6076 38.2842L36.153 35.4388L38.6985 29.7481L40.909 23.3176L37.6937 15.8059L40.909 9.09082ZM35.0813 27.5856L33.4066 31.1708L31.732 33.3332L29.1865 39.7637L26.6411 41.9262H23.2918L20.7463 39.7637L18.2009 33.3332L16.5262 31.1708L14.8516 27.5856V20.4722L20.7463 19.7324L24.9664 21.8949L29.1865 19.7324L35.0813 20.4722V27.5856Z" fill="#8844EE"/>
<path d="M28.3827 27.5855L30.0574 28.3253V27.1302L30.8612 26.9026H31.732L33.4067 24.7401V23.3175L29.1866 24.7401L28.3827 27.5855ZM24.9665 29.748L23.2918 29.0082L21.6172 36.1215L22.488 38.284L23.2918 39.7067H24.1626L24.9665 40.3896L25.8373 39.7067H26.7081L27.5119 38.284L28.3827 36.1215L26.7081 29.0082L24.9665 29.748ZM20.8134 24.7401L16.5933 23.3175V24.7401L18.2679 26.9026H19.1387L19.9425 27.1302V28.3253L21.6172 27.5855L20.8134 24.7401Z" fill="#8844EE"/>
</svg>
