<svg width="50" height="54" viewBox="0 0 50 54" fill="none" xmlns="http://www.w3.org/2000/svg">
<rect width="50" height="54" rx="5" fill="#1A1A1A"/>
<path d="M25.8917 39.564C25.6162 39.2867 25.3287 39.0084 25.0541 38.7002C24.8345 38.9311 24.6288 39.1475 24.4111 39.363C21.6932 42.0298 18.8918 43.14 17.2311 42.0607C15.6246 41.0279 15.1185 37.9765 15.7615 34.1376C15.8301 33.7215 15.9124 33.3053 16.0086 32.8892C15.7202 32.7927 15.4455 32.7038 15.1709 32.5994C11.7513 31.2709 9.5 29.1132 9.5 26.9547C9.5 24.8744 11.6006 22.8549 14.8816 21.5602C15.249 21.421 15.6366 21.2829 16.0352 21.1593C15.9434 20.7582 15.8708 20.3727 15.8019 19.9997C15.1149 16.103 15.5952 12.9897 17.2155 11.9414C18.9037 10.8312 21.7052 12.0187 24.5186 14.8081C24.683 14.9773 24.8483 15.1627 25.0265 15.3473C25.2874 15.07 25.5344 14.7928 25.7953 14.5464C28.459 11.9375 31.108 10.8466 32.7282 11.895C34.4164 12.9733 34.9115 16.3029 34.1565 20.4191C34.1152 20.6818 34.0647 20.9282 34.0059 21.1921C34.3494 21.3003 34.692 21.423 35.008 21.5467C38.3578 22.8414 40.5273 24.8608 40.4997 26.9875C40.4997 29.1606 38.1796 31.3037 34.6213 32.6293C34.4293 32.6911 34.2373 32.7685 34.0444 32.8293C34.1271 33.1376 34.1813 33.4458 34.2364 33.7541C34.9501 37.7466 34.4008 41.0143 32.7402 42.0935C32.3041 42.3698 31.8025 42.5104 31.2935 42.4994C29.7715 42.4965 27.839 41.4424 25.8917 39.564ZM28.583 33.9067C27.7943 35.1972 26.9276 36.433 25.9882 37.6064C26.249 37.8963 26.5099 38.162 26.7708 38.4084C29.0358 40.5969 31.1227 41.4143 32.0981 40.7824C32.396 40.5125 32.6394 40.1826 32.8139 39.8119C32.9884 39.4413 33.0905 39.0376 33.114 38.6248C33.3122 37.0951 33.2563 35.5409 32.9487 34.0313C32.9073 33.7541 32.8568 33.4767 32.7843 33.1839C31.401 33.5245 29.9973 33.766 28.583 33.9067ZM17.0777 34.4005C16.5156 37.6856 16.9271 40.1341 17.9044 40.767C18.2507 40.9192 18.6244 40.9894 18.9993 40.9727C19.3743 40.956 19.7411 40.8528 20.0739 40.6703C21.3684 40.098 22.5474 39.2713 23.5477 38.2344C23.7535 38.0489 23.9454 37.8335 24.1521 37.618C23.192 36.4442 22.3023 35.2085 21.4884 33.9183C20.0794 33.7945 18.6802 33.5685 17.3009 33.242C17.2155 33.6449 17.1466 34.0294 17.0777 34.4005ZM25.0688 36.5581C25.6731 35.8024 26.2766 34.9705 26.881 34.0458C26.2766 34.0767 25.6456 34.0922 25.0136 34.0922C24.3817 34.0922 23.792 34.0767 23.2014 34.0458C23.8187 34.9541 24.4368 35.8024 25.0678 36.5581H25.0688ZM22.1846 21.5139C21.6629 22.3612 21.155 23.2531 20.6746 24.196C20.1942 25.1208 19.7561 26.0609 19.3565 26.9982C19.769 27.9228 20.208 28.8629 20.6884 29.8195C21.1688 30.7442 21.6767 31.6554 22.1984 32.5163C23.1041 32.5781 24.052 32.6129 25.0127 32.6129C25.9735 32.6129 26.9343 32.582 27.8546 32.5057C28.3488 31.6583 28.8567 30.7481 29.338 29.808C29.8193 28.8678 30.2712 27.9122 30.6698 26.9875C30.2712 26.0783 29.8184 25.1381 29.338 24.197C28.8576 23.2559 28.3497 22.3612 27.8417 21.5147C26.9232 21.4375 25.9744 21.3912 25.0136 21.3912C24.0529 21.3912 23.105 21.4365 22.1846 21.5139ZM17.6545 31.8254C18.5965 32.0518 19.5499 32.2218 20.5102 32.3347C20.1804 31.7491 19.8516 31.1626 19.5357 30.5462C19.2335 29.9452 18.9313 29.3442 18.6566 28.7432C18.2589 29.7906 17.9292 30.8254 17.6545 31.8254ZM30.4907 30.5307C30.1748 31.1472 29.8588 31.7327 29.5437 32.3037C30.5184 32.1753 31.4856 31.9901 32.4407 31.7491C32.1425 30.7086 31.7942 29.6847 31.3973 28.6813C31.1089 29.2978 30.8067 29.9142 30.4907 30.5307ZM15.3068 22.9777C12.5063 24.0878 10.8181 25.7043 10.8181 26.9701C10.8715 27.3773 11.0008 27.7695 11.1986 28.124C11.3964 28.4785 11.6589 28.7883 11.9708 29.0359C13.0423 29.9838 14.2711 30.7153 15.5952 31.1935C15.8423 31.2902 16.1032 31.3636 16.364 31.4563C16.7857 29.9402 17.2947 28.4524 17.8878 27.001C17.2935 25.5746 16.789 24.1085 16.3778 22.6125C16.0074 22.7168 15.6503 22.8385 15.3068 22.9777ZM32.1523 26.9701C32.7616 28.403 33.2831 29.8753 33.7138 31.3781C33.8929 31.3162 34.0711 31.2544 34.2355 31.1926C37.2969 30.0524 39.1955 28.3102 39.2056 26.9537C39.2056 25.6899 37.4484 24.055 34.579 22.9458C34.2906 22.8385 33.9756 22.7303 33.6605 22.6221C33.2446 24.1031 32.7409 25.5553 32.1523 26.9701ZM30.4779 23.425C30.7938 24.0415 31.096 24.6435 31.3697 25.2445C31.7512 24.2622 32.0811 23.2587 32.3581 22.2385C31.4256 22.0001 30.4815 21.815 29.53 21.6839C29.8597 22.253 30.1748 22.8241 30.477 23.425H30.4779ZM17.6683 22.2259C17.9439 23.2125 18.2727 24.2145 18.6566 25.2464C18.9322 24.6454 19.2335 24.0444 19.5357 23.4434C19.8378 22.8424 20.1529 22.2569 20.4826 21.6858C19.4943 21.822 18.5611 22.0066 17.6683 22.2259ZM26.6605 15.6749C26.4272 15.9058 26.1939 16.1522 25.9597 16.3995C26.913 17.5585 27.7893 18.7853 28.5821 20.0712C29.9792 20.2131 31.3648 20.4605 32.7282 20.8114C32.7833 20.5804 32.8201 20.3485 32.866 20.1176C33.509 16.5725 33.1131 13.8593 32.0696 13.182C31.8407 13.0467 31.5808 12.9799 31.3183 12.9888C30.1968 12.983 28.4755 13.9018 26.6605 15.672V15.6749ZM17.8741 13.2207C16.8995 13.8525 16.5147 16.3802 17.0915 19.7099C17.1604 20.0645 17.2293 20.4181 17.311 20.7882C18.6763 20.4501 20.0614 20.2081 21.4572 20.0635C22.2528 18.776 23.1337 17.5491 24.0933 16.3918C23.9427 16.2218 23.7773 16.0682 23.6267 15.9135C21.7162 14.013 19.8792 13.01 18.6796 13.01C18.3977 12.9999 18.1187 13.0729 17.8741 13.2207ZM26.8525 19.9408C26.2863 19.079 25.6755 18.2507 25.0228 17.4595C24.4056 18.2141 23.7874 19.047 23.1858 19.9408C23.7902 19.9099 24.3937 19.8944 25.0118 19.8944C25.63 19.8944 26.249 19.907 26.8534 19.9408H26.8525ZM22.2673 27.032C22.2544 26.6358 22.316 26.2409 22.4485 25.8698C22.581 25.4987 22.7818 25.1587 23.0394 24.8695C23.297 24.5801 23.6063 24.3472 23.9496 24.1839C24.2931 24.0206 24.6637 23.9301 25.0403 23.9178C25.8002 23.945 26.5189 24.2882 27.0387 24.8719C27.5585 25.4557 27.8371 26.2325 27.8133 27.032C27.8378 27.8321 27.5595 28.6098 27.0393 29.1942C26.5193 29.7786 25.8 30.1221 25.0394 30.149C24.6625 30.1367 24.2917 30.0462 23.9483 29.8827C23.6047 29.7192 23.2953 29.4859 23.0377 29.1963C22.7802 28.9067 22.5796 28.5664 22.4473 28.1949C22.3152 27.8236 22.2539 27.4283 22.2673 27.032Z" fill="#3BC0DD"/>
</svg>
