<svg width="51" height="51" viewBox="0 0 51 51" fill="none" xmlns="http://www.w3.org/2000/svg">
<path d="M23.8801 2.03598C25.1182 1.32119 26.6435 1.32119 27.8816 2.03598L45.5308 12.2257C46.7688 12.9405 47.5315 14.2615 47.5315 15.6911V36.0706C47.5315 37.5002 46.7688 38.8212 45.5308 39.536L27.8816 49.7257C26.6435 50.4405 25.1182 50.4405 23.8801 49.7257L6.23096 39.536C4.9929 38.8212 4.23022 37.5002 4.23022 36.0706V15.6911C4.23022 14.2615 4.9929 12.9405 6.23096 12.2257L23.8801 2.03598Z" stroke="url(#paint0_linear_663_100)" stroke-opacity="0.3" stroke-width="0.800293"/>
<path d="M24.4884 9.28443C25.3501 8.78694 26.4118 8.78694 27.2735 9.28443L39.5573 16.3765C40.419 16.874 40.9498 17.7934 40.9498 18.7884V32.9725C40.9498 33.9675 40.419 34.8869 39.5573 35.3844L27.2735 42.4765C26.4118 42.974 25.3501 42.974 24.4884 42.4765L12.2046 35.3844C11.3429 34.8869 10.8121 33.9675 10.8121 32.9725V18.7884C10.8121 17.7934 11.3429 16.874 12.2046 16.3765L24.4884 9.28443Z" fill="url(#paint1_linear_663_100)" fill-opacity="0.2"/>
<g clip-path="url(#clip0_663_100)">
<path d="M34.8497 27.3016C33.9777 27.3061 33.2197 27.5161 32.5851 27.8266C32.3522 27.3654 32.1193 26.9546 32.0783 26.6532C32.0326 26.3017 31.9778 26.087 32.0326 25.667C32.0874 25.2469 32.3339 24.6487 32.3293 24.6031C32.3248 24.5575 32.2745 24.3429 31.7723 24.3383C31.2701 24.3337 30.8363 24.4342 30.7861 24.5666C30.7358 24.699 30.64 25.0004 30.576 25.3108C30.4893 25.7674 29.5716 27.3974 29.0466 28.2512C28.8776 27.918 28.7315 27.6257 28.6995 27.3929C28.6538 27.0413 28.599 26.8267 28.6538 26.4066C28.7087 25.9866 28.9552 25.3885 28.9506 25.3428C28.946 25.2971 28.8958 25.0825 28.3936 25.078C27.8913 25.0734 27.4575 25.1739 27.4074 25.3063C27.3571 25.4387 27.3023 25.7491 27.1973 26.0505C27.0923 26.3519 25.8732 29.0732 25.5536 29.7762C25.4244 30.0608 25.289 30.3425 25.1472 30.621C25.1472 30.621 25.1426 30.6347 25.1289 30.6575C25.0844 30.7448 25.0388 30.8316 24.9921 30.9178V30.9223C24.9235 31.0456 24.8505 31.1597 24.8139 31.1597C24.7865 31.1597 24.7363 30.831 24.823 30.3835C25.0057 29.4384 25.4394 27.9682 25.4349 27.918C25.4349 27.8906 25.5171 27.6349 25.1519 27.5024C24.7956 27.37 24.6678 27.5892 24.6358 27.5892C24.6039 27.5892 24.581 27.6668 24.581 27.6668C24.581 27.6668 24.9783 26.014 23.8231 26.014C23.1018 26.014 22.1063 26.8039 21.6132 27.5161C21.0527 27.8212 20.4926 28.1271 19.933 28.4339C19.6637 28.5846 19.3851 28.7353 19.1249 28.8768C19.1066 28.8586 19.0884 28.8357 19.0701 28.8174C17.6729 27.3244 15.0887 26.2697 15.1982 24.2653C15.2394 23.5347 15.4904 21.617 20.1613 19.2885C24.0057 17.3936 27.0649 17.9186 27.5946 19.083C28.3525 20.745 25.9555 23.8315 21.9831 24.2789C20.4672 24.4479 19.6727 23.8635 19.4719 23.6443C19.2619 23.416 19.2299 23.4023 19.1522 23.448C19.0244 23.5165 19.1066 23.722 19.1522 23.8406C19.271 24.151 19.7595 24.699 20.5859 24.9684C21.3165 25.2058 23.0926 25.3383 25.2431 24.5073C27.6493 23.5758 29.5305 20.987 28.978 18.8182C28.4255 16.6174 24.7728 15.8915 21.3165 17.1196C19.2619 17.8503 17.0337 19.0008 15.4311 20.4984C13.5271 22.2791 13.2257 23.8269 13.349 24.4753C13.792 26.7765 16.9652 28.2741 18.2345 29.3836C18.1706 29.4201 18.1112 29.4521 18.061 29.4796C17.4263 29.7946 15.0064 31.0592 14.4037 32.3971C13.7189 33.9129 14.5134 34.9997 15.0384 35.1457C16.6684 35.5978 18.3441 34.7851 19.2436 33.4426C20.143 32.1003 20.0335 30.3561 19.618 29.5571C19.6134 29.548 19.6089 29.5388 19.5997 29.5297C19.7641 29.4338 19.933 29.3334 20.0974 29.2375C20.3996 29.0589 20.7055 28.8868 21.0152 28.7215C20.8599 29.1462 20.7457 29.653 20.691 30.3835C20.6224 31.242 20.9739 32.356 21.4351 32.7942C21.6407 32.9862 21.8826 32.9907 22.0379 32.9907C22.5766 32.9907 22.8187 32.5432 23.0881 32.0135C23.4168 31.3652 23.7136 30.6119 23.7136 30.6119C23.7136 30.6119 23.3437 32.6482 24.3482 32.6482C24.7135 32.6482 25.0833 32.1733 25.2477 31.9314V31.9359C25.2477 31.9359 25.2568 31.9222 25.2751 31.8903C25.3117 31.8309 25.3345 31.7943 25.3345 31.7943V31.7853C25.4806 31.5295 25.8094 30.9497 26.2979 29.9863C26.928 28.7444 27.5352 27.192 27.5352 27.192C27.5352 27.192 27.5901 27.571 27.7772 28.2011C27.8869 28.5709 28.115 28.9772 28.2977 29.3699C28.1516 29.5754 28.0603 29.6895 28.0603 29.6895L28.0649 29.6941C27.9461 29.8493 27.8183 30.0182 27.6767 30.1827C27.179 30.7762 26.5855 31.4566 26.5033 31.6528C26.4073 31.8857 26.4303 32.0547 26.613 32.1917C26.7453 32.2921 26.9827 32.3057 27.2247 32.2921C27.6722 32.2601 27.9872 32.1505 28.1424 32.0821C28.3845 31.9953 28.6675 31.8629 28.9323 31.6665C29.4209 31.3058 29.7176 30.7899 29.6903 30.1097C29.6766 29.7352 29.5533 29.3608 29.4026 29.0092C29.4483 28.9453 29.4894 28.8814 29.5351 28.8174C30.3067 27.6896 30.9048 26.4523 30.9048 26.4523C30.9048 26.4523 30.9597 26.8312 31.1468 27.4614C31.2382 27.781 31.4254 28.128 31.5897 28.4658C30.8637 29.0549 30.4162 29.7397 30.2564 30.1872C29.9689 31.0182 30.1925 31.3926 30.6172 31.4793C30.8089 31.5204 31.0829 31.4291 31.2838 31.3423C31.5394 31.2602 31.8408 31.1187 32.1285 30.9086C32.6171 30.5479 33.0873 30.0456 33.0599 29.3654C33.0462 29.0549 32.964 28.7489 32.8499 28.4521C33.4662 28.1966 34.2607 28.055 35.2743 28.1736C37.4477 28.4293 37.8769 29.7854 37.7947 30.3562C37.7125 30.9269 37.2559 31.2374 37.1053 31.3332C36.9545 31.4292 36.9044 31.4611 36.9181 31.5295C36.9363 31.63 37.0094 31.6255 37.1372 31.6072C37.3154 31.5753 38.2788 31.146 38.3198 30.0958C38.3883 28.7535 37.1098 27.2879 34.8497 27.3016V27.3016ZM18.0838 32.9541C17.3624 33.7394 16.358 34.0362 15.9242 33.7852C15.4585 33.5157 15.6411 32.356 16.5269 31.525C17.0656 31.0182 17.7596 30.5478 18.2208 30.2602C18.3258 30.1963 18.4811 30.1051 18.6683 29.9909C18.7002 29.9726 18.7185 29.9635 18.7185 29.9635L18.8281 29.8949C19.1522 31.0821 18.8418 32.1277 18.0838 32.9541V32.9541ZM23.3346 29.3836C23.0835 29.9955 22.5584 31.5616 22.2388 31.4748C21.9649 31.4018 21.7959 30.2146 22.184 29.0412C22.3803 28.4521 22.7958 27.749 23.0378 27.4751C23.4305 27.0367 23.8642 26.8905 23.9692 27.0688C24.1017 27.3016 23.4898 29.0001 23.3346 29.3836V29.3836ZM27.6676 31.4565C27.5626 31.5113 27.4622 31.5479 27.4165 31.5204C27.3845 31.5021 27.4622 31.4291 27.4622 31.4291C27.4622 31.4291 28.0055 30.8447 28.2201 30.5799C28.3434 30.4247 28.4894 30.242 28.6447 30.0365V30.0958C28.6447 30.7945 27.9689 31.2648 27.6675 31.4565H27.6676ZM31.0098 30.694C30.9322 30.6392 30.9459 30.4566 31.2061 29.8858C31.3066 29.6621 31.5439 29.2877 31.9504 28.927C31.996 29.0731 32.028 29.2147 32.0234 29.3471C32.0188 30.2283 31.3888 30.557 31.0098 30.694Z" fill="#CD6799"/>
</g>
<defs>
<linearGradient id="paint0_linear_663_100" x1="0.880859" y1="0.880859" x2="50.8809" y2="50.8809" gradientUnits="userSpaceOnUse">
<stop stop-color="white"/>
<stop offset="0.765625" stop-color="white" stop-opacity="0"/>
</linearGradient>
<linearGradient id="paint1_linear_663_100" x1="8.48096" y1="8.48047" x2="43.281" y2="43.2805" gradientUnits="userSpaceOnUse">
<stop stop-color="white"/>
<stop offset="0.828125" stop-color="white" stop-opacity="0"/>
</linearGradient>
<clipPath id="clip0_663_100">
<rect width="25.0667" height="18.8" fill="white" transform="translate(13.2808 16.4805)"/>
</clipPath>
</defs>
</svg>
