<svg width="50" height="54" viewBox="0 0 50 54" fill="none" xmlns="http://www.w3.org/2000/svg">
<rect width="50" height="54" rx="5" fill="#1A1A1A"/>
<path d="M37.9905 29.3753C36.7318 29.3837 35.6419 29.7422 34.7277 30.276C34.3902 29.4838 34.0527 28.7916 33.9965 28.2747C33.9332 27.6743 33.8559 27.3073 33.9332 26.5902C34.0105 25.873 34.3621 24.8557 34.3621 24.7723C34.355 24.6972 34.2847 24.3303 33.5605 24.322C32.8362 24.3137 32.2103 24.4888 32.14 24.7139C32.0697 24.9391 31.9291 25.4561 31.8376 25.9898C31.7111 26.7736 30.3891 29.5504 29.6367 31.0097C29.3906 30.4427 29.1796 29.9423 29.1373 29.542C29.0741 28.9417 28.9967 28.5747 29.0741 27.8576C29.1515 27.1404 29.5031 26.1232 29.5031 26.0398C29.496 25.9647 29.4257 25.5978 28.7015 25.5895C27.9772 25.5812 27.3514 25.7563 27.2811 25.9814C27.2107 26.2066 27.1334 26.7402 26.9787 27.2572C26.831 27.7743 25.073 32.4106 24.6159 33.6197C24.3839 34.2368 24.18 34.7288 24.0323 35.0624C23.8846 35.3959 24.0252 35.0874 24.0112 35.1207C23.8846 35.4042 23.8143 35.5627 23.8143 35.5627V35.5711C23.7158 35.7796 23.6104 35.9796 23.5611 35.9796C23.5259 35.9796 23.4556 35.4209 23.5751 34.6538C23.8353 33.0444 24.4682 30.5345 24.4612 30.4427C24.4612 30.4011 24.5807 29.959 24.0533 29.734C23.54 29.5088 23.3572 29.884 23.315 29.884C23.2728 29.884 23.2376 30.0175 23.2376 30.0175C23.2376 30.0175 23.8072 27.1907 22.1477 27.1907C21.1069 27.1907 19.6724 28.5332 18.9622 29.759C18.5122 30.0509 17.5559 30.6679 16.5433 31.3267C16.1565 31.5769 15.7557 31.8437 15.376 32.0856L15.2987 31.9853C13.2876 29.442 9.56773 27.6408 9.72243 24.2219C9.77869 22.9794 10.1443 19.7023 16.8669 15.733C22.3728 12.4809 26.7818 13.3732 27.5482 15.3578C28.6381 18.193 25.1925 23.4631 19.4687 24.2219C17.2888 24.5138 16.1425 23.5131 15.8543 23.1379C15.5519 22.746 15.5097 22.7293 15.3972 22.8043C15.2144 22.9211 15.3269 23.2713 15.3972 23.4798C15.566 24.0051 16.2692 24.9391 17.4646 25.406C18.5123 25.8146 21.0719 26.0398 24.166 24.6222C27.6327 23.0295 30.3399 18.6099 29.5453 14.9158C28.7367 11.1551 23.4768 9.92091 18.5053 12.0139C15.5448 13.2648 12.3383 15.216 10.0318 17.776C7.28941 20.8114 6.85343 23.4631 7.03626 24.5638C7.67623 28.4914 12.2398 31.0514 14.0681 32.9443C13.9767 33.0026 13.8923 33.061 13.815 33.1111C12.9008 33.6447 9.42006 35.8045 8.54811 38.0892C7.56365 40.6743 8.70281 42.5339 9.46225 42.7841C11.8109 43.5596 14.2158 42.167 15.5167 39.8738C16.8105 37.5807 16.6559 34.6037 16.0581 33.2445L16.037 33.1945L16.7542 32.6941C17.2184 32.3689 17.6755 32.0687 18.0762 31.8101C17.8513 32.5356 17.6895 33.3945 17.6052 34.6453C17.5067 36.113 18.013 38.0142 18.681 38.7647C18.9764 39.0898 19.328 39.0982 19.5459 39.0982C20.3195 39.0982 20.671 38.3393 21.0578 37.4305C21.536 36.3214 21.9579 35.0373 21.9579 35.0373C21.9579 35.0373 21.4305 38.5145 22.872 38.5145C23.3994 38.5145 23.9268 37.7057 24.1659 37.2887V37.2971C24.1659 37.2971 24.1799 37.272 24.2081 37.2137C24.2376 37.1619 24.2657 37.1091 24.2925 37.0553V37.0386C24.5034 36.605 24.9745 35.6127 25.6777 33.97C26.5848 31.8519 27.4568 29.2002 27.4568 29.2002C27.4568 29.2002 27.5412 29.8506 27.8014 30.918C27.956 31.5518 28.2935 32.2438 28.5537 32.9193C28.3427 33.2695 28.2162 33.4697 28.2162 33.4697L28.2232 33.4781C28.0545 33.7449 27.8646 34.0285 27.6677 34.3119C26.9505 35.3293 26.0926 36.4885 25.9801 36.822C25.8465 37.2138 25.8746 37.5057 26.1348 37.7393C26.3247 37.906 26.6622 37.9393 27.0208 37.906C27.6677 37.8559 28.1178 37.6642 28.3428 37.5474C28.6944 37.3973 29.0952 37.1722 29.482 36.8386C30.1852 36.2216 30.6141 35.346 30.5719 34.1786C30.5508 33.5365 30.375 32.9028 30.157 32.3024C30.2203 32.194 30.2837 32.0855 30.3469 31.9688C31.4579 30.0425 32.3158 27.9245 32.3158 27.9245C32.3158 27.9245 32.4002 28.5749 32.6604 29.6423C32.7939 30.1843 33.0612 30.7765 33.3003 31.3602C32.2596 32.3692 31.6056 33.5366 31.3806 34.3038C30.9657 35.7214 31.2892 36.3635 31.9009 36.5136C32.1751 36.5803 32.569 36.4302 32.8642 36.2801C33.2299 36.1383 33.6729 35.8964 34.0808 35.5379C34.784 34.9208 35.4591 34.0619 35.4239 32.9029C35.4028 32.3692 35.2833 31.8438 35.1215 31.3435C36.0075 30.9099 37.1537 30.6597 38.6093 30.8682C41.7385 31.3018 42.3573 33.62 42.2378 34.5873C42.1183 35.5547 41.4643 36.0883 41.2463 36.255C41.0283 36.4135 40.958 36.4719 40.9791 36.5886C41.0072 36.7638 41.1056 36.7554 41.2955 36.7221C41.5557 36.672 42.941 35.9299 42.9972 34.1455C43.0816 31.852 41.2463 29.3504 37.9905 29.3753V29.3753ZM13.8572 39.0233C12.8235 40.3658 11.3679 40.8745 10.7491 40.4409C10.0811 39.9822 10.3412 38.0059 11.614 36.58C12.3875 35.7128 13.3931 34.9123 14.0541 34.4203C14.2017 34.3119 14.4267 34.1535 14.694 33.9616C14.7362 33.9284 14.7643 33.9116 14.7643 33.9116C14.8135 33.8782 14.8698 33.8366 14.926 33.7949C15.3971 35.8295 14.9471 37.614 13.8572 39.0233V39.0233ZM21.4164 32.9276C21.0578 33.97 20.2984 36.6467 19.8413 36.4966C19.4474 36.3715 19.2084 34.3452 19.7639 32.3439C20.0451 31.3348 20.6428 30.1341 20.9944 29.6671C21.5641 28.9166 22.1828 28.6664 22.3376 28.975C22.5204 29.3753 21.6414 32.2772 21.4164 32.9276ZM27.6537 36.4633C27.499 36.5551 27.3583 36.6217 27.2951 36.5718C27.2458 36.5384 27.3583 36.4133 27.3583 36.4133C27.3583 36.4133 28.1388 35.421 28.4482 34.9624C28.624 34.6956 28.835 34.3871 29.06 34.0368V34.1368C29.0601 35.3375 28.0897 36.1381 27.6537 36.4633ZM32.4634 35.1624C32.3509 35.0624 32.365 34.7538 32.7447 33.7865C32.8924 33.4029 33.2299 32.7608 33.8135 32.1521C33.8838 32.4023 33.9261 32.644 33.919 32.8693C33.912 34.3702 33.012 34.9289 32.4634 35.1624Z" fill="#CF649A"/>
</svg>
