<svg width="51" height="51" viewBox="0 0 51 51" fill="none" xmlns="http://www.w3.org/2000/svg">
<path d="M23.5408 2.03598C24.7788 1.32119 26.3042 1.32119 27.5422 2.03598L45.1914 12.2257C46.4295 12.9405 47.1921 14.2615 47.1921 15.6911V36.0706C47.1921 37.5002 46.4295 38.8212 45.1914 39.536L27.5422 49.7257C26.3042 50.4405 24.7788 50.4405 23.5408 49.7257L5.8916 39.536C4.65354 38.8212 3.89087 37.5002 3.89087 36.0706V15.6911C3.89087 14.2615 4.65354 12.9405 5.8916 12.2257L23.5408 2.03598Z" stroke="url(#paint0_linear_663_109)" stroke-opacity="0.3" stroke-width="0.800293"/>
<path d="M24.1486 9.28443C25.0103 8.78694 26.0719 8.78694 26.9336 9.28443L39.2174 16.3765C40.0791 16.874 40.61 17.7934 40.61 18.7884V32.9725C40.61 33.9675 40.0791 34.8869 39.2174 35.3844L26.9336 42.4765C26.0719 42.974 25.0103 42.974 24.1486 42.4765L11.8648 35.3844C11.0031 34.8869 10.4723 33.9675 10.4723 32.9725V18.7884C10.4723 17.7934 11.0031 16.874 11.8648 16.3765L24.1486 9.28443Z" fill="url(#paint1_linear_663_109)" fill-opacity="0.2"/>
<g clip-path="url(#clip0_663_109)">
<path d="M23.4934 26.3758L16.4485 33.4208C16.1087 33.7605 15.5579 33.7605 15.2181 33.4208L14.3964 32.5991C14.0572 32.2599 14.0566 31.7102 14.395 31.3702L19.9783 25.7606L14.395 20.1511C14.0566 19.8111 14.0573 19.2614 14.3965 18.9222L15.2181 18.1005C15.5579 17.7608 16.1088 17.7608 16.4485 18.1005L23.4934 25.1455C23.8332 25.4852 23.8332 26.0361 23.4934 26.3758ZM37.3416 33.0106V31.8506C37.3416 31.3701 36.9521 30.9806 36.4716 30.9806H25.4516C24.9711 30.9806 24.5816 31.3701 24.5816 31.8506V33.0106C24.5816 33.4911 24.9711 33.8806 25.4516 33.8806H36.4716C36.9521 33.8806 37.3416 33.4911 37.3416 33.0106Z" fill="white"/>
</g>
<defs>
<linearGradient id="paint0_linear_663_109" x1="0.541504" y1="0.880859" x2="50.5415" y2="50.8809" gradientUnits="userSpaceOnUse">
<stop stop-color="white"/>
<stop offset="0.765625" stop-color="white" stop-opacity="0"/>
</linearGradient>
<linearGradient id="paint1_linear_663_109" x1="8.14111" y1="8.48047" x2="42.9411" y2="43.2805" gradientUnits="userSpaceOnUse">
<stop stop-color="white"/>
<stop offset="0.828125" stop-color="white" stop-opacity="0"/>
</linearGradient>
<clipPath id="clip0_663_109">
<rect width="23.2" height="18.56" fill="white" transform="translate(14.1416 16.4805)"/>
</clipPath>
</defs>
</svg>
