<svg width="50" height="54" viewBox="0 0 50 54" fill="none" xmlns="http://www.w3.org/2000/svg">
<rect width="50" height="54" rx="5" fill="#1A1A1A"/>
<path d="M40.9067 19.9194L24.9965 14.5051L9.09082 19.9194V14.5051L24.9988 9.09082L40.909 14.5051V19.9194H40.9067Z" fill="#F7F7F7"/>
<path fill-rule="evenodd" clip-rule="evenodd" d="M9.09082 24.466H17.4241V36.4012C17.4241 39.4848 21.3303 40.9879 24.9988 40.9879C28.6989 40.9879 32.5757 39.4448 32.5757 36.3599V24.466H40.909V36.6856C40.909 39.5262 39.3941 41.7181 36.3642 43.2212C33.3321 44.7229 29.5459 45.4545 24.9286 45.4545C20.3158 45.4545 16.5274 44.7243 13.5677 43.2212C10.6058 41.7194 9.09082 39.609 9.09082 36.8071V24.466Z" fill="#F7F7F7"/>
</svg>
