<svg width="51" height="51" viewBox="0 0 51 51" fill="none" xmlns="http://www.w3.org/2000/svg">
<path d="M23.1001 1.25571C24.3382 0.540917 25.8635 0.540916 27.1016 1.25571L44.7507 11.4455C45.9888 12.1603 46.7515 13.4812 46.7515 14.9108V35.2903C46.7515 36.7199 45.9888 38.0409 44.7507 38.7557L27.1016 48.9455C25.8635 49.6603 24.3382 49.6603 23.1001 48.9455L5.45093 38.7557C4.21287 38.0409 3.4502 36.7199 3.4502 35.2903V14.9108C3.4502 13.4812 4.21287 12.1603 5.45093 11.4455L23.1001 1.25571Z" stroke="url(#paint0_linear_663_201)" stroke-opacity="0.3" stroke-width="0.800293"/>
<path d="M23.7084 8.50416C24.5701 8.00666 25.6317 8.00667 26.4934 8.50416L38.7773 15.5962C39.6389 16.0937 40.1698 17.0131 40.1698 18.0081V32.1923C40.1698 33.1873 39.6389 34.1067 38.7773 34.6042L26.4934 41.6962C25.6317 42.1937 24.5701 42.1937 23.7084 41.6962L11.4246 34.6042C10.5629 34.1067 10.0321 33.1873 10.0321 32.1923V18.0081C10.0321 17.0131 10.5629 16.0937 11.4246 15.5962L23.7084 8.50416Z" fill="url(#paint1_linear_663_201)" fill-opacity="0.2"/>
<g clip-path="url(#clip0_663_201)">
<path d="M29.8006 31.8468V15.7002L34.5007 17.6554V32.545L29.8007 34.5002L15.7007 29.7527L29.8006 31.8468ZM17.9471 26.7066L16.8757 26.3487L19.5208 23.734L16.8758 21.1194L17.9471 20.7616L20.5472 22.7195L24.8654 18.4509L27.4506 19.5499V27.9179L24.8652 29.0168L20.547 24.7485L17.9471 26.7065V26.7066ZM21.8945 23.734L24.8654 25.9712V21.4968L21.8945 23.734V23.734Z" fill="#016EC5"/>
</g>
<defs>
<linearGradient id="paint0_linear_663_201" x1="0.10083" y1="0.100586" x2="50.1008" y2="50.1006" gradientUnits="userSpaceOnUse">
<stop stop-color="white"/>
<stop offset="0.765625" stop-color="white" stop-opacity="0"/>
</linearGradient>
<linearGradient id="paint1_linear_663_201" x1="7.70093" y1="7.7002" x2="42.5009" y2="42.5002" gradientUnits="userSpaceOnUse">
<stop stop-color="white"/>
<stop offset="0.828125" stop-color="white" stop-opacity="0"/>
</linearGradient>
<clipPath id="clip0_663_201">
<rect width="18.8" height="18.8" fill="white" transform="translate(15.7007 15.7002)"/>
</clipPath>
</defs>
</svg>
