<svg width="51" height="51" viewBox="0 0 51 51" fill="none" xmlns="http://www.w3.org/2000/svg">
<path d="M23.2195 1.25571C24.4575 0.540917 25.9829 0.540916 27.2209 1.25571L44.8701 11.4455C46.1082 12.1603 46.8708 13.4812 46.8708 14.9108V35.2903C46.8708 36.7199 46.1082 38.0409 44.8701 38.7557L27.2209 48.9455C25.9829 49.6603 24.4575 49.6603 23.2195 48.9455L5.57031 38.7557C4.33226 38.0409 3.56958 36.7199 3.56958 35.2903V14.9108C3.56958 13.4812 4.33225 12.1603 5.57031 11.4455L23.2195 1.25571Z" stroke="url(#paint0_linear_663_121)" stroke-opacity="0.3" stroke-width="0.800293"/>
<path d="M23.8278 8.50416C24.6895 8.00666 25.7511 8.00667 26.6128 8.50416L38.8966 15.5962C39.7583 16.0937 40.2892 17.0131 40.2892 18.0081V32.1923C40.2892 33.1873 39.7583 34.1067 38.8966 34.6042L26.6128 41.6962C25.7511 42.1937 24.6895 42.1937 23.8278 41.6962L11.544 34.6042C10.6823 34.1067 10.1515 33.1873 10.1515 32.1923V18.0081C10.1515 17.0131 10.6823 16.0937 11.544 15.5962L23.8278 8.50416Z" fill="url(#paint1_linear_663_121)" fill-opacity="0.2"/>
<g clip-path="url(#clip0_663_121)">
<path d="M31.2601 16.1006H35.4201L25.0201 34.4839L14.6201 16.1006H22.5761L25.0201 20.3634L27.4121 16.1006H31.2601Z" fill="#41B883"/>
<path d="M14.6201 16.1006L25.0201 34.4839L35.4201 16.1006H31.2601L25.0201 27.1306L18.7281 16.1006H14.6201Z" fill="#41B883"/>
<path d="M18.728 16.1006L25.02 27.1839L31.26 16.1006H27.412L25.02 20.3634L22.576 16.1006H18.728Z" fill="#35495E"/>
</g>
<defs>
<linearGradient id="paint0_linear_663_121" x1="0.220215" y1="0.100586" x2="50.2202" y2="50.1006" gradientUnits="userSpaceOnUse">
<stop stop-color="white"/>
<stop offset="0.765625" stop-color="white" stop-opacity="0"/>
</linearGradient>
<linearGradient id="paint1_linear_663_121" x1="7.82031" y1="7.7002" x2="42.6203" y2="42.5002" gradientUnits="userSpaceOnUse">
<stop stop-color="white"/>
<stop offset="0.828125" stop-color="white" stop-opacity="0"/>
</linearGradient>
<clipPath id="clip0_663_121">
<rect width="20.8" height="18.4" fill="white" transform="translate(14.6201 16.1006)"/>
</clipPath>
</defs>
</svg>
