<svg width="50" height="54" viewBox="0 0 50 54" fill="none" xmlns="http://www.w3.org/2000/svg">
<rect width="50" height="54" rx="5" fill="#1A1A1A"/>
<path d="M18.6679 26.5173L26.3085 38.8111C26.4447 38.9931 26.3635 39.1774 26.1435 39.1774H21.3946C21.0934 39.1774 20.9572 39.1094 20.821 38.8813C19.0739 35.8649 17.3006 32.8485 15.4723 29.6039H15.4173C13.7803 32.6664 11.9782 35.889 10.2337 38.9054C10.0975 39.0875 9.96128 39.1577 9.74125 39.1577H5.24387C4.97146 39.1577 4.94265 38.9756 5.08147 38.8374L12.557 26.9078L5.32769 14.8422C5.16267 14.6601 5.32769 14.5219 5.49009 14.5219H10.1839C10.4563 14.5219 10.5663 14.568 10.6737 14.7742C12.392 17.7906 14.1391 20.8992 15.7762 23.9375H15.8312C17.4133 20.9211 19.1603 17.7906 20.8524 14.7962C20.9886 14.6141 21.0698 14.5 21.3449 14.5H25.7375C25.9549 14.5 26.0387 14.6382 25.9025 14.8203L18.6679 26.5173ZM27.647 30.2423C27.647 24.9181 31.8772 20.7588 38.5879 20.7588C39.1615 20.7588 39.4601 20.7588 40.0076 20.8048V14.7501C40.0076 14.6119 40.1438 14.5219 40.28 14.5219H44.5914C44.8088 14.5219 44.8638 14.5899 44.8638 14.704V35.6828C44.8638 36.2992 44.8638 37.0758 45 37.9226C45 38.0608 44.945 38.1047 44.7826 38.1749C42.4907 39.0897 40.0888 39.4999 37.7969 39.4999C31.8746 39.5196 27.6443 36.4594 27.647 30.2423ZM40.0049 24.3938C39.6225 24.2556 39.0777 24.1656 38.4229 24.1656C34.9837 24.1656 32.5844 26.3813 32.5844 30.0624C32.5844 34.2678 35.0413 35.9592 38.1243 35.9592C38.7791 35.9592 39.4889 35.8912 40.0076 35.7069V24.3938H40.0049Z" fill="#FF61F6"/>
</svg>
