<svg width="51" height="51" viewBox="0 0 51 51" fill="none" xmlns="http://www.w3.org/2000/svg">
<path d="M23.4397 1.25571C24.6778 0.540917 26.2031 0.540916 27.4412 1.25571L45.0903 11.4455C46.3284 12.1603 47.0911 13.4812 47.0911 14.9108V35.2903C47.0911 36.7199 46.3284 38.0409 45.0903 38.7557L27.4412 48.9455C26.2031 49.6603 24.6778 49.6603 23.4397 48.9455L5.79053 38.7557C4.55247 38.0409 3.78979 36.7199 3.78979 35.2903V14.9108C3.78979 13.4812 4.55247 12.1603 5.79053 11.4455L23.4397 1.25571Z" stroke="url(#paint0_linear_663_124)" stroke-opacity="0.3" stroke-width="0.800293"/>
<path d="M24.048 8.50416C24.9097 8.00666 25.9713 8.00667 26.833 8.50416L39.1169 15.5962C39.9785 16.0937 40.5094 17.0131 40.5094 18.0081V32.1923C40.5094 33.1873 39.9785 34.1067 39.1169 34.6042L26.833 41.6962C25.9713 42.1937 24.9097 42.1937 24.048 41.6962L11.7642 34.6042C10.9025 34.1067 10.3717 33.1873 10.3717 32.1923V18.0081C10.3717 17.0131 10.9025 16.0937 11.7642 15.5962L24.048 8.50416Z" fill="url(#paint1_linear_663_124)" fill-opacity="0.2"/>
<path d="M31.2402 34.634H20.0402C19.0501 34.634 18.1005 34.2406 17.4004 33.5405C16.7002 32.8403 16.3069 31.8908 16.3069 30.9006V19.7006C16.3069 18.7105 16.7002 17.7609 17.4004 17.0608C18.1005 16.3606 19.0501 15.9673 20.0402 15.9673H31.2402C32.2304 15.9673 33.1799 16.3606 33.8801 17.0608C34.5802 17.7609 34.9736 18.7105 34.9736 19.7006V30.9006C34.9736 31.8908 34.5802 32.8403 33.8801 33.5405C33.1799 34.2406 32.2304 34.634 31.2402 34.634ZM20.0402 17.834C19.5451 17.834 19.0704 18.0306 18.7203 18.3807C18.3702 18.7308 18.1736 19.2055 18.1736 19.7006V30.9006C18.1736 31.3957 18.3702 31.8705 18.7203 32.2206C19.0704 32.5706 19.5451 32.7673 20.0402 32.7673H31.2402C31.7353 32.7673 32.2101 32.5706 32.5602 32.2206C32.9102 31.8705 33.1069 31.3957 33.1069 30.9006V19.7006C33.1069 19.2055 32.9102 18.7308 32.5602 18.3807C32.2101 18.0306 31.7353 17.834 31.2402 17.834H20.0402ZM29.1514 29.7582C28.7478 29.7745 28.3451 29.7084 27.9679 29.564C27.5906 29.4196 27.2467 29.1998 26.9572 28.9182C26.3509 28.227 26.0399 27.3256 26.091 26.4076C26.0722 25.5153 26.3905 24.6488 26.9824 23.9809C27.2918 23.6538 27.6668 23.3958 28.0829 23.2238C28.4991 23.0519 28.9468 22.9699 29.3969 22.9832H29.6144V21.1165C29.6144 20.9709 29.7329 20.8524 29.8785 20.8514H31.1077C31.1759 20.8489 31.2426 20.8722 31.2944 20.9168C31.3196 20.9407 31.3395 20.9697 31.3527 21.0019C31.3659 21.034 31.3721 21.0687 31.3709 21.1034V28.2705C31.3662 28.5178 31.3793 28.7652 31.4082 29.0106V29.034C31.4097 29.0933 31.3913 29.1514 31.356 29.1992C31.3255 29.2366 31.2868 29.2666 31.243 29.2869C30.5953 29.5961 29.8869 29.7574 29.1692 29.7592L29.1514 29.7582V29.7582ZM28.2965 24.9833L28.2918 24.9889C27.9962 25.3779 27.8475 25.8589 27.8718 26.3469C27.8335 26.8554 27.9803 27.3606 28.2853 27.7693C28.5345 28.0437 28.8938 28.193 29.2644 28.1744C29.382 28.1762 29.4996 28.1641 29.6144 28.1389V24.5465C29.5272 24.5278 29.4384 24.5188 29.3493 24.5194C29.1501 24.5141 28.9523 24.5532 28.7702 24.6339C28.5881 24.7146 28.4263 24.8349 28.2965 24.9861V24.9833V24.9833ZM25.8502 29.65H24.496C24.4263 29.6545 24.357 29.6371 24.2978 29.6003C24.2385 29.5635 24.1923 29.5091 24.1656 29.4446L23.9696 29.034L23.9649 29.0237L23.7736 28.642L23.7138 28.5178C23.4161 27.9037 23.109 27.2709 22.801 26.6194C22.3728 27.5682 21.9319 28.5113 21.4785 29.4484V29.4577L21.4738 29.4661C21.4426 29.5184 21.399 29.5623 21.3469 29.594C21.2939 29.6256 21.2331 29.6418 21.1714 29.6406H19.8918C19.8383 29.6432 19.7854 29.6284 19.7411 29.5982C19.6968 29.5681 19.6635 29.5243 19.6464 29.4736C19.6351 29.4349 19.6329 29.3942 19.6398 29.3546C19.6468 29.3149 19.6628 29.2774 19.6865 29.2449L21.7669 25.268L19.7546 21.2416C19.7275 21.2024 19.7121 21.1563 19.7101 21.1088C19.7082 21.0612 19.7197 21.014 19.7434 20.9728C19.7662 20.9353 19.7983 20.9044 19.8366 20.883C19.8748 20.8615 19.918 20.8504 19.9618 20.8505H21.3002C21.3652 20.847 21.4299 20.8619 21.4869 20.8934C21.5448 20.9289 21.5896 20.9821 21.6138 21.0456C22.1141 22.0956 22.536 23.0056 22.9046 23.8129C23.3629 22.7862 23.8501 21.7428 24.1768 21.0512L24.1814 21.0409L24.187 21.0316V21.0213C24.2104 20.9814 24.2397 20.9452 24.2738 20.914C24.3316 20.8658 24.4049 20.8402 24.4801 20.8421H25.7336C25.7815 20.8408 25.8288 20.8534 25.8697 20.8784C25.9106 20.9035 25.9434 20.9398 25.9641 20.983C25.9806 21.0226 25.9872 21.0656 25.9835 21.1084C25.9798 21.1511 25.9657 21.1923 25.9426 21.2285L23.9294 25.1364L26.0593 29.243C26.0817 29.2787 26.0958 29.3189 26.1004 29.3608C26.1051 29.4026 26.1003 29.445 26.0864 29.4848C26.0688 29.5331 26.0366 29.5748 25.9943 29.604C25.952 29.6333 25.9016 29.6487 25.8502 29.6481V29.65V29.65Z" fill="#B03AF0"/>
<defs>
<linearGradient id="paint0_linear_663_124" x1="0.44043" y1="0.100586" x2="50.4404" y2="50.1006" gradientUnits="userSpaceOnUse">
<stop stop-color="white"/>
<stop offset="0.765625" stop-color="white" stop-opacity="0"/>
</linearGradient>
<linearGradient id="paint1_linear_663_124" x1="8.04053" y1="7.7002" x2="42.8405" y2="42.5002" gradientUnits="userSpaceOnUse">
<stop stop-color="white"/>
<stop offset="0.828125" stop-color="white" stop-opacity="0"/>
</linearGradient>
</defs>
</svg>
